<?xml version="1.0" encoding="UTF-8"?>
<svg width="700pt" height="700pt" version="1.1" viewBox="0 0 700 700" xmlns="http://www.w3.org/2000/svg" xmlns:xlink="http://www.w3.org/1999/xlink">
 <defs>
  <symbol id="u" overflow="visible">
   <path d="m2.4062-0.14062c-0.125 0.0625-0.25781 0.10938-0.39062 0.14062-0.13672 0.03125-0.27734 0.046875-0.42188 0.046875-0.4375 0-0.78906-0.11719-1.0469-0.35938-0.25-0.25-0.375-0.58203-0.375-1 0-0.41406 0.125-0.74219 0.375-0.98438 0.25781-0.25 0.60938-0.375 1.0469-0.375 0.14453 0 0.28516 0.023437 0.42188 0.0625 0.13281 0.03125 0.26562 0.078125 0.39062 0.14062v0.53125c-0.125-0.082031-0.25-0.14062-0.375-0.17188-0.11719-0.039063-0.24219-0.0625-0.375-0.0625-0.24219 0-0.43359 0.078125-0.57812 0.23438-0.13672 0.14844-0.20312 0.35547-0.20312 0.625 0 0.27344 0.066406 0.48438 0.20312 0.64062 0.14453 0.15625 0.33594 0.23438 0.57812 0.23438 0.13281 0 0.25781-0.019531 0.375-0.0625 0.125-0.039062 0.25-0.10156 0.375-0.1875z"/>
  </symbol>
  <symbol id="b" overflow="visible">
   <path d="m1.7656-1.4375c-0.0625-0.019531-0.12109-0.035156-0.17188-0.046875-0.054688-0.007813-0.10547-0.015625-0.15625-0.015625-0.16797 0-0.29297 0.054688-0.375 0.15625-0.085938 0.10547-0.125 0.25-0.125 0.4375v0.90625h-0.64062v-1.9688h0.64062v0.32812c0.070312-0.125 0.16016-0.21875 0.26562-0.28125 0.10156-0.0625 0.22656-0.09375 0.375-0.09375 0.019531 0 0.039063 0.007813 0.0625 0.015625h0.125z"/>
  </symbol>
  <symbol id="a" overflow="visible">
   <path d="m2.2656-0.98438v0.17188h-1.4688c0.007813 0.14844 0.0625 0.26172 0.15625 0.34375 0.09375 0.074219 0.22266 0.10938 0.39062 0.10938 0.125 0 0.25391-0.019531 0.39062-0.0625 0.14453-0.039063 0.28906-0.10156 0.4375-0.1875v0.48438c-0.14844 0.0625-0.29688 0.10547-0.45312 0.125-0.14844 0.03125-0.29297 0.046875-0.4375 0.046875-0.35547 0-0.63281-0.085938-0.82812-0.26562-0.19922-0.17578-0.29688-0.42969-0.29688-0.76562 0-0.32031 0.09375-0.57031 0.28125-0.75 0.19531-0.1875 0.46875-0.28125 0.8125-0.28125 0.30078 0 0.54688 0.09375 0.73438 0.28125s0.28125 0.4375 0.28125 0.75zm-0.64062-0.21875c0-0.11328-0.039062-0.20703-0.10938-0.28125-0.074219-0.070313-0.16797-0.10938-0.28125-0.10938-0.11719 0-0.21484 0.039062-0.29688 0.10938-0.074219 0.0625-0.12109 0.15625-0.14062 0.28125z"/>
  </symbol>
  <symbol id="g" overflow="visible">
   <path d="m1.1875-0.89062c-0.13672 0-0.24219 0.027344-0.3125 0.078125-0.0625 0.042969-0.09375 0.10547-0.09375 0.1875 0 0.085938 0.023438 0.15234 0.078125 0.20312 0.0625 0.042969 0.14062 0.0625 0.23438 0.0625 0.11328 0 0.21094-0.039063 0.29688-0.125 0.082031-0.09375 0.125-0.20312 0.125-0.32812v-0.078125zm0.95312-0.23438v1.125h-0.625v-0.29688c-0.09375 0.125-0.19531 0.21484-0.29688 0.26562-0.10547 0.050781-0.23047 0.078125-0.375 0.078125-0.21094 0-0.375-0.054688-0.5-0.17188-0.125-0.125-0.1875-0.28125-0.1875-0.46875 0-0.22656 0.078125-0.39453 0.23438-0.5 0.15625-0.11328 0.40625-0.17188 0.75-0.17188h0.375v-0.046875c0-0.09375-0.042969-0.16016-0.125-0.20312-0.074219-0.050781-0.19531-0.078125-0.35938-0.078125-0.13672 0-0.26562 0.015625-0.39062 0.046875-0.11719 0.023437-0.21875 0.058594-0.3125 0.10938v-0.46875c0.13281-0.039062 0.26953-0.066406 0.40625-0.078125 0.13281-0.019531 0.26953-0.03125 0.40625-0.03125 0.35156 0 0.60938 0.074219 0.76562 0.21875 0.15625 0.13672 0.23438 0.35938 0.23438 0.67188z"/>
  </symbol>
  <symbol id="c" overflow="visible">
   <path d="m0.98438-2.5156v0.54688h0.65625v0.45312h-0.65625v0.82812c0 0.09375 0.015625 0.15625 0.046875 0.1875 0.039062 0.03125 0.11719 0.046875 0.23438 0.046875h0.3125v0.45312h-0.53125c-0.25 0-0.42969-0.050781-0.53125-0.15625-0.10547-0.10156-0.15625-0.28125-0.15625-0.53125v-0.82812h-0.3125v-0.45312h0.3125v-0.54688z"/>
  </symbol>
  <symbol id="k" overflow="visible">
   <path d="m1.6406-1.6719v-1.0625h0.625v2.7344h-0.625v-0.28125c-0.085937 0.11719-0.17969 0.19922-0.28125 0.25-0.10547 0.050781-0.23047 0.078125-0.375 0.078125-0.24219 0-0.4375-0.09375-0.59375-0.28125-0.15625-0.19531-0.23438-0.44531-0.23438-0.75 0-0.30078 0.078125-0.54688 0.23438-0.73438 0.15625-0.19531 0.35156-0.29688 0.59375-0.29688 0.13281 0 0.25391 0.03125 0.35938 0.09375 0.11328 0.054687 0.21094 0.13672 0.29688 0.25zm-0.42188 1.2656c0.13281 0 0.23828-0.046875 0.3125-0.14062 0.070312-0.10156 0.10938-0.25 0.10938-0.4375s-0.039063-0.32812-0.10938-0.42188c-0.074219-0.10156-0.17969-0.15625-0.3125-0.15625-0.125 0-0.22656 0.054688-0.29688 0.15625-0.074219 0.09375-0.10938 0.23438-0.10938 0.42188s0.035156 0.33594 0.10938 0.4375c0.070313 0.09375 0.17188 0.14062 0.29688 0.14062z"/>
  </symbol>
  <symbol id="j" overflow="visible">
   <path d="m1.3438-0.40625c0.13281 0 0.23828-0.046875 0.3125-0.14062 0.070312-0.10156 0.10938-0.25 0.10938-0.4375s-0.039063-0.32812-0.10938-0.42188c-0.074219-0.10156-0.17969-0.15625-0.3125-0.15625-0.13672 0-0.24219 0.054688-0.3125 0.15625-0.0625 0.09375-0.09375 0.23438-0.09375 0.42188s0.03125 0.33594 0.09375 0.4375c0.070312 0.09375 0.17578 0.14062 0.3125 0.14062zm-0.40625-1.2656c0.082031-0.11328 0.17578-0.19531 0.28125-0.25 0.10156-0.0625 0.22266-0.09375 0.35938-0.09375 0.23828 0 0.4375 0.10156 0.59375 0.29688 0.15625 0.1875 0.23438 0.43359 0.23438 0.73438 0 0.30469-0.078125 0.55469-0.23438 0.75-0.15625 0.1875-0.35547 0.28125-0.59375 0.28125-0.13672 0-0.25781-0.027344-0.35938-0.078125-0.10547-0.050781-0.19922-0.13281-0.28125-0.25v0.28125h-0.64062v-2.7344h0.64062z"/>
  </symbol>
  <symbol id="f" overflow="visible">
   <path d="m0.046875-1.9688h0.625l0.53125 1.3438 0.45312-1.3438h0.625l-0.82812 2.1562c-0.085937 0.21875-0.18359 0.36719-0.29688 0.45312-0.10547 0.09375-0.25 0.14062-0.4375 0.14062h-0.35938v-0.42188h0.20312c0.10156 0 0.17578-0.015625 0.21875-0.046875 0.050781-0.03125 0.09375-0.09375 0.125-0.1875l0.015625-0.046875z"/>
  </symbol>
  <symbol id="e" overflow="visible">
   <path d="m0.28125-0.76562v-1.2031h0.625v0.20312 0.40625 0.3125c0 0.15625 0.003906 0.27344 0.015625 0.34375 0.007813 0.074219 0.023437 0.125 0.046875 0.15625 0.019531 0.042969 0.050781 0.074219 0.09375 0.09375 0.039062 0.023437 0.085938 0.03125 0.14062 0.03125 0.13281 0 0.23828-0.046875 0.3125-0.14062 0.070313-0.10156 0.10938-0.25 0.10938-0.4375v-0.96875h0.625v1.9688h-0.625v-0.28125c-0.09375 0.11719-0.19531 0.19922-0.29688 0.25-0.10547 0.050781-0.21875 0.078125-0.34375 0.078125-0.23047 0-0.40625-0.066406-0.53125-0.20312-0.11719-0.13281-0.17188-0.33594-0.17188-0.60938z"/>
  </symbol>
  <symbol id="t" overflow="visible">
   <path d="m0.20312-1.9688h1.7188v0.4375l-1.0312 1.0781h1.0312v0.45312h-1.7656v-0.4375l1.0469-1.0781h-1z"/>
  </symbol>
  <symbol id="i" overflow="visible">
   <path d="m0.29688-1.9688h0.64062v1.9688h-0.64062zm0-0.76562h0.64062v0.51562h-0.64062z"/>
  </symbol>
  <symbol id="s" overflow="visible">
   <path d="m1.8438-1.9062v0.48438c-0.13672-0.0625-0.26562-0.10156-0.39062-0.125-0.125-0.03125-0.24609-0.046875-0.35938-0.046875-0.11719 0-0.20312 0.015625-0.26562 0.046875s-0.09375 0.078125-0.09375 0.14062c0 0.042969 0.019531 0.078125 0.0625 0.10938 0.050781 0.03125 0.13281 0.054687 0.25 0.0625l0.10938 0.015625c0.32031 0.042969 0.53516 0.10938 0.64062 0.20312 0.11328 0.09375 0.17188 0.24219 0.17188 0.4375 0 0.21094-0.078125 0.36719-0.23438 0.46875-0.15625 0.10547-0.38672 0.15625-0.6875 0.15625-0.13672 0-0.27344-0.011719-0.40625-0.03125-0.13672-0.019531-0.27734-0.050781-0.42188-0.09375v-0.46875c0.125 0.0625 0.25 0.10938 0.375 0.14062 0.13281 0.03125 0.26953 0.046875 0.40625 0.046875 0.125 0 0.21875-0.015625 0.28125-0.046875 0.0625-0.039062 0.09375-0.09375 0.09375-0.15625s-0.023438-0.10156-0.0625-0.125c-0.042969-0.03125-0.13281-0.054688-0.26562-0.078125h-0.10938c-0.28125-0.039063-0.48047-0.10938-0.59375-0.20312-0.10547-0.09375-0.15625-0.23828-0.15625-0.4375 0-0.19531 0.066406-0.34766 0.20312-0.45312 0.14453-0.10156 0.36719-0.15625 0.67188-0.15625 0.11328 0 0.23438 0.011719 0.35938 0.03125 0.125 0.023437 0.26562 0.046875 0.42188 0.078125z"/>
  </symbol>
  <symbol id="h" overflow="visible">
   <path d="m1.5938-2.7344v0.42188h-0.34375c-0.09375 0-0.15625 0.015625-0.1875 0.046875s-0.046875 0.085937-0.046875 0.15625v0.14062h0.53125v0.45312h-0.53125v1.5156h-0.64062v-1.5156h-0.3125v-0.45312h0.3125v-0.14062c0-0.20703 0.054688-0.36328 0.17188-0.46875 0.125-0.10156 0.3125-0.15625 0.5625-0.15625z"/>
  </symbol>
  <symbol id="d" overflow="visible">
   <path d="m1.2344-1.5625c-0.13672 0-0.24219 0.054688-0.3125 0.15625-0.074219 0.09375-0.10938 0.23438-0.10938 0.42188s0.035156 0.33594 0.10938 0.4375c0.070313 0.10547 0.17578 0.15625 0.3125 0.15625 0.13281 0 0.23828-0.050781 0.3125-0.15625 0.070313-0.10156 0.10938-0.25 0.10938-0.4375s-0.039062-0.32812-0.10938-0.42188c-0.074219-0.10156-0.17969-0.15625-0.3125-0.15625zm0-0.45312c0.34375 0 0.60938 0.09375 0.79688 0.28125 0.1875 0.17969 0.28125 0.42969 0.28125 0.75 0 0.32422-0.09375 0.57812-0.28125 0.76562-0.1875 0.17969-0.45312 0.26562-0.79688 0.26562-0.33594 0-0.60156-0.085938-0.79688-0.26562-0.1875-0.1875-0.28125-0.44141-0.28125-0.76562 0-0.32031 0.09375-0.57031 0.28125-0.75 0.19531-0.1875 0.46094-0.28125 0.79688-0.28125z"/>
  </symbol>
  <symbol id="r" overflow="visible">
   <path d="m2.125-1.6406c0.082031-0.125 0.17578-0.21875 0.28125-0.28125 0.11328-0.0625 0.23438-0.09375 0.35938-0.09375 0.22656 0 0.39844 0.074219 0.51562 0.21875 0.11328 0.13672 0.17188 0.33594 0.17188 0.59375v1.2031h-0.625v-1.0312-0.03125-0.078125c0-0.13281-0.023437-0.23438-0.0625-0.29688-0.042969-0.0625-0.10547-0.09375-0.1875-0.09375-0.125 0-0.21875 0.046875-0.28125 0.14062s-0.10156 0.23438-0.10938 0.42188v0.96875h-0.625v-1.0312c0-0.20703-0.023438-0.34375-0.0625-0.40625-0.03125-0.0625-0.09375-0.09375-0.1875-0.09375-0.125 0-0.21875 0.046875-0.28125 0.14062s-0.09375 0.23438-0.09375 0.42188v0.96875h-0.64062v-1.9688h0.64062v0.29688c0.070312-0.11328 0.15625-0.19531 0.25-0.25 0.10156-0.0625 0.21875-0.09375 0.34375-0.09375 0.13281 0 0.25391 0.039063 0.35938 0.10938 0.10156 0.0625 0.17969 0.15234 0.23438 0.26562z"/>
  </symbol>
  <symbol id="q" overflow="visible">
   <path d="m2.2812-1.2031v1.2031h-0.64062v-0.90625c0-0.17578-0.007813-0.29688-0.015625-0.35938 0-0.0625-0.011719-0.10938-0.03125-0.14062-0.023438-0.039062-0.054688-0.070312-0.09375-0.09375-0.042969-0.019531-0.09375-0.03125-0.15625-0.03125-0.125 0-0.22656 0.054688-0.29688 0.15625-0.074219 0.09375-0.10938 0.23047-0.10938 0.40625v0.96875h-0.64062v-2.7344h0.64062v1.0625c0.09375-0.11328 0.19141-0.19531 0.29688-0.25 0.10156-0.0625 0.21875-0.09375 0.34375-0.09375 0.22656 0 0.39844 0.074219 0.51562 0.21875 0.125 0.13672 0.1875 0.33594 0.1875 0.59375z"/>
  </symbol>
  <symbol id="p" overflow="visible">
   <path d="m0.32812-2.625h0.75l0.95312 1.7969v-1.7969h0.64062v2.625h-0.75l-0.95312-1.7969v1.7969h-0.64062z"/>
  </symbol>
  <symbol id="o" overflow="visible">
   <path d="m2.2812-1.2031v1.2031h-0.64062v-0.92188c0-0.16406-0.007813-0.28125-0.015625-0.34375 0-0.0625-0.011719-0.10938-0.03125-0.14062-0.023438-0.039062-0.054688-0.070312-0.09375-0.09375-0.042969-0.019531-0.09375-0.03125-0.15625-0.03125-0.125 0-0.22656 0.054688-0.29688 0.15625-0.074219 0.09375-0.10938 0.23047-0.10938 0.40625v0.96875h-0.64062v-1.9688h0.64062v0.29688c0.09375-0.11328 0.19141-0.19531 0.29688-0.25 0.10156-0.0625 0.21875-0.09375 0.34375-0.09375 0.22656 0 0.39844 0.074219 0.51562 0.21875 0.125 0.13672 0.1875 0.33594 0.1875 0.59375z"/>
  </symbol>
  <symbol id="n" overflow="visible">
   <path d="m0.32812-2.625h1.125c0.33203 0 0.58594 0.078125 0.76562 0.23438 0.17578 0.14844 0.26562 0.35547 0.26562 0.625 0 0.27344-0.089844 0.48438-0.26562 0.64062-0.17969 0.14844-0.43359 0.21875-0.76562 0.21875h-0.45312v0.90625h-0.67188zm0.67188 0.5v0.71875h0.375c0.13281 0 0.23828-0.03125 0.3125-0.09375 0.070312-0.0625 0.10938-0.14844 0.10938-0.26562 0-0.11328-0.039063-0.20312-0.10938-0.26562-0.074219-0.0625-0.17969-0.09375-0.3125-0.09375z"/>
  </symbol>
  <symbol id="m" overflow="visible">
   <path d="m0.29688-1.9688h0.64062v1.9375c0 0.25781-0.070312 0.45703-0.20312 0.59375-0.125 0.14453-0.30859 0.21875-0.54688 0.21875h-0.3125v-0.42188h0.10938c0.125 0 0.20703-0.027344 0.25-0.078125 0.039063-0.054688 0.0625-0.15625 0.0625-0.3125zm0-0.76562h0.64062v0.51562h-0.64062z"/>
  </symbol>
  <symbol id="l" overflow="visible">
   <path d="m1.8906-1.9062v0.51562c-0.085937-0.0625-0.17188-0.10156-0.26562-0.125-0.085938-0.03125-0.17188-0.046875-0.26562-0.046875-0.16797 0-0.30469 0.054688-0.40625 0.15625-0.09375 0.10547-0.14062 0.24609-0.14062 0.42188 0 0.1875 0.046875 0.33594 0.14062 0.4375 0.10156 0.10547 0.23828 0.15625 0.40625 0.15625 0.10156 0 0.19531-0.015625 0.28125-0.046875 0.09375-0.03125 0.17578-0.078125 0.25-0.14062v0.51562c-0.09375 0.042969-0.19531 0.066406-0.29688 0.078125-0.10547 0.019531-0.21094 0.03125-0.3125 0.03125-0.35547 0-0.63281-0.085938-0.82812-0.26562-0.19922-0.1875-0.29688-0.44141-0.29688-0.76562 0-0.32031 0.097656-0.57031 0.29688-0.75 0.19531-0.1875 0.47266-0.28125 0.82812-0.28125 0.10156 0 0.20312 0.011719 0.29688 0.03125 0.10156 0.023437 0.20703 0.046875 0.3125 0.078125z"/>
  </symbol>
 </defs>
 <g>
  <path d="m156.02 0h129.56v560h-129.56z" fill-rule="evenodd"/>
  <path d="m414.42 0h129.56v560h-129.56z" fill-rule="evenodd"/>
  <use x="156.015625" y="570.796875" xlink:href="#u"/>
  <use x="158.65625" y="570.796875" xlink:href="#b"/>
  <use x="160.429688" y="570.796875" xlink:href="#a"/>
  <use x="162.871094" y="570.796875" xlink:href="#g"/>
  <use x="165.300781" y="570.796875" xlink:href="#c"/>
  <use x="167.019531" y="570.796875" xlink:href="#a"/>
  <use x="169.460938" y="570.796875" xlink:href="#k"/>
  <use x="173.292969" y="570.796875" xlink:href="#j"/>
  <use x="175.867188" y="570.796875" xlink:href="#f"/>
  <use x="179.464844" y="570.796875" xlink:href="#e"/>
  <use x="182.027344" y="570.796875" xlink:href="#t"/>
  <use x="184.125" y="570.796875" xlink:href="#a"/>
  <use x="186.566406" y="570.796875" xlink:href="#i"/>
  <use x="187.796875" y="570.796875" xlink:href="#b"/>
  <use x="190.824219" y="570.796875" xlink:href="#s"/>
  <use x="192.96875" y="570.796875" xlink:href="#f"/>
  <use x="195.3125" y="570.796875" xlink:href="#g"/>
  <use x="197.742188" y="570.796875" xlink:href="#b"/>
  <use x="199.519531" y="570.796875" xlink:href="#i"/>
  <use x="200.75" y="570.796875" xlink:href="#a"/>
  <use x="203.191406" y="570.796875" xlink:href="#h"/>
  <use x="156.015625" y="574.394531" xlink:href="#h"/>
  <use x="157.582031" y="574.394531" xlink:href="#b"/>
  <use x="159.355469" y="574.394531" xlink:href="#d"/>
  <use x="161.828125" y="574.394531" xlink:href="#r"/>
  <use x="166.832031" y="574.394531" xlink:href="#c"/>
  <use x="168.550781" y="574.394531" xlink:href="#q"/>
  <use x="171.113281" y="574.394531" xlink:href="#a"/>
  <use x="174.808594" y="574.394531" xlink:href="#p"/>
  <use x="177.820312" y="574.394531" xlink:href="#d"/>
  <use x="180.292969" y="574.394531" xlink:href="#e"/>
  <use x="182.855469" y="574.394531" xlink:href="#o"/>
  <use x="186.671875" y="574.394531" xlink:href="#n"/>
  <use x="189.308594" y="574.394531" xlink:href="#b"/>
  <use x="191.082031" y="574.394531" xlink:href="#d"/>
  <use x="193.554688" y="574.394531" xlink:href="#m"/>
  <use x="194.789062" y="574.394531" xlink:href="#a"/>
  <use x="197.230469" y="574.394531" xlink:href="#l"/>
  <use x="199.363281" y="574.394531" xlink:href="#c"/>
 </g>
</svg>
