<?xml version="1.0" encoding="UTF-8"?>
<svg width="700pt" height="700pt" version="1.1" viewBox="0 0 700 700" xmlns="http://www.w3.org/2000/svg" xmlns:xlink="http://www.w3.org/1999/xlink">
 <defs>
  <symbol id="u" overflow="visible">
   <path d="m3.5938-0.21875c-0.1875 0.09375-0.38281 0.16797-0.57812 0.21875-0.19922 0.050781-0.40625 0.078125-0.625 0.078125-0.65625 0-1.1797-0.17969-1.5625-0.54688-0.375-0.36328-0.5625-0.85938-0.5625-1.4844s0.1875-1.1172 0.5625-1.4844c0.38281-0.36328 0.90625-0.54688 1.5625-0.54688 0.21875 0 0.42578 0.027344 0.625 0.078125 0.19531 0.054688 0.39062 0.125 0.57812 0.21875v0.8125c-0.1875-0.125-0.375-0.21875-0.5625-0.28125-0.17969-0.0625-0.36719-0.09375-0.5625-0.09375-0.36719 0-0.65234 0.11719-0.85938 0.34375-0.19922 0.23047-0.29688 0.54688-0.29688 0.95312s0.097656 0.72656 0.29688 0.95312c0.20703 0.23047 0.49219 0.34375 0.85938 0.34375 0.19531 0 0.38281-0.023438 0.5625-0.078125 0.1875-0.0625 0.375-0.15625 0.5625-0.28125z"/>
  </symbol>
  <symbol id="b" overflow="visible">
   <path d="m2.625-2.125c-0.085938-0.039062-0.16797-0.070312-0.25-0.09375-0.074219-0.019531-0.15234-0.03125-0.23438-0.03125-0.24219 0-0.42969 0.078125-0.5625 0.23438-0.125 0.15625-0.1875 0.38281-0.1875 0.67188v1.3438h-0.9375v-2.9375h0.9375v0.48438c0.11328-0.1875 0.25-0.32031 0.40625-0.40625 0.15625-0.09375 0.34375-0.14062 0.5625-0.14062h0.09375c0.039063 0 0.097656 0.007812 0.17188 0.015625z"/>
  </symbol>
  <symbol id="a" overflow="visible">
   <path d="m3.375-1.4688v0.26562h-2.1875c0.019531 0.21875 0.097656 0.38672 0.23438 0.5 0.13281 0.10547 0.32812 0.15625 0.57812 0.15625 0.19531 0 0.39453-0.023437 0.59375-0.078125 0.20703-0.0625 0.42188-0.15625 0.64062-0.28125v0.73438c-0.21875 0.085938-0.44531 0.14844-0.67188 0.1875-0.21875 0.039062-0.4375 0.0625-0.65625 0.0625-0.53125 0-0.94531-0.13281-1.2344-0.40625-0.29297-0.26953-0.4375-0.64844-0.4375-1.1406 0-0.47656 0.14062-0.85156 0.42188-1.125 0.28906-0.26953 0.69141-0.40625 1.2031-0.40625 0.45703 0 0.82031 0.14062 1.0938 0.42188 0.28125 0.27344 0.42188 0.64062 0.42188 1.1094zm-0.96875-0.3125c0-0.17578-0.054688-0.31641-0.15625-0.42188-0.10547-0.11328-0.24219-0.17188-0.40625-0.17188-0.17969 0-0.32422 0.054688-0.4375 0.15625-0.11719 0.09375-0.18359 0.24219-0.20312 0.4375z"/>
  </symbol>
  <symbol id="g" overflow="visible">
   <path d="m1.7656-1.3125c-0.19922 0-0.35156 0.03125-0.45312 0.09375-0.09375 0.0625-0.14062 0.16406-0.14062 0.29688 0 0.11719 0.035156 0.21094 0.10938 0.28125 0.082031 0.0625 0.19531 0.09375 0.34375 0.09375 0.17578 0 0.32031-0.0625 0.4375-0.1875 0.125-0.125 0.1875-0.28516 0.1875-0.48438v-0.09375zm1.4219-0.35938v1.6719h-0.9375v-0.4375c-0.125 0.17969-0.26562 0.30859-0.42188 0.39062-0.15625 0.082031-0.35156 0.125-0.57812 0.125-0.30469 0-0.54688-0.085938-0.73438-0.26562-0.1875-0.17578-0.28125-0.40625-0.28125-0.6875 0-0.34375 0.11328-0.59375 0.34375-0.75 0.23828-0.16406 0.61328-0.25 1.125-0.25h0.54688v-0.078125c0-0.14453-0.058594-0.25-0.17188-0.3125-0.11719-0.070313-0.29688-0.10938-0.54688-0.10938-0.19922 0-0.38672 0.023438-0.5625 0.0625-0.17969 0.03125-0.33984 0.089844-0.48438 0.17188v-0.71875c0.19531-0.039063 0.39453-0.070313 0.59375-0.09375 0.20703-0.03125 0.41406-0.046875 0.625-0.046875 0.51953 0 0.89453 0.10547 1.125 0.3125 0.23828 0.21094 0.35938 0.54688 0.35938 1.0156z"/>
  </symbol>
  <symbol id="c" overflow="visible">
   <path d="m1.4688-3.7656v0.82812h0.96875v0.67188h-0.96875v1.25c0 0.13672 0.023438 0.23047 0.078125 0.28125 0.0625 0.042969 0.17188 0.0625 0.32812 0.0625h0.48438v0.67188h-0.8125c-0.36719 0-0.625-0.078125-0.78125-0.23438s-0.23438-0.41406-0.23438-0.78125v-1.25h-0.45312v-0.67188h0.45312v-0.82812z"/>
  </symbol>
  <symbol id="k" overflow="visible">
   <path d="m2.4375-2.5v-1.5781h0.95312v4.0781h-0.95312v-0.42188c-0.125 0.16797-0.26562 0.29297-0.42188 0.375-0.15625 0.082031-0.33594 0.125-0.53125 0.125-0.36719 0-0.66797-0.14062-0.90625-0.42188-0.23047-0.28906-0.34375-0.66406-0.34375-1.125 0-0.44531 0.11328-0.8125 0.34375-1.0938 0.23828-0.28906 0.53906-0.4375 0.90625-0.4375 0.19531 0 0.375 0.042969 0.53125 0.125 0.15625 0.074219 0.29688 0.19922 0.42188 0.375zm-0.60938 1.8906c0.19531 0 0.34766-0.070313 0.45312-0.21875 0.10156-0.14453 0.15625-0.35938 0.15625-0.64062 0-0.26953-0.054688-0.47656-0.15625-0.625-0.10547-0.15625-0.25781-0.23438-0.45312-0.23438-0.19922 0-0.35156 0.078125-0.45312 0.23438-0.10547 0.14844-0.15625 0.35547-0.15625 0.625 0 0.28125 0.050781 0.49609 0.15625 0.64062 0.10156 0.14844 0.25391 0.21875 0.45312 0.21875z"/>
  </symbol>
  <symbol id="j" overflow="visible">
   <path d="m2.0156-0.60938c0.19531 0 0.34766-0.070313 0.45312-0.21875 0.10156-0.14453 0.15625-0.35938 0.15625-0.64062 0-0.26953-0.054688-0.47656-0.15625-0.625-0.10547-0.15625-0.25781-0.23438-0.45312-0.23438-0.21094 0-0.36719 0.078125-0.46875 0.23438-0.10547 0.14844-0.15625 0.35547-0.15625 0.625 0 0.28125 0.050781 0.49609 0.15625 0.64062 0.10156 0.14844 0.25781 0.21875 0.46875 0.21875zm-0.625-1.8906c0.125-0.17578 0.26562-0.30078 0.42188-0.375 0.15625-0.082031 0.33594-0.125 0.54688-0.125 0.36328 0 0.66016 0.14844 0.89062 0.4375 0.22656 0.28125 0.34375 0.64844 0.34375 1.0938 0 0.46094-0.11719 0.83594-0.34375 1.125-0.23047 0.28125-0.52734 0.42188-0.89062 0.42188-0.21094 0-0.39062-0.042969-0.54688-0.125-0.15625-0.082031-0.29688-0.20703-0.42188-0.375v0.42188h-0.9375v-4.0781h0.9375z"/>
  </symbol>
  <symbol id="f" overflow="visible">
   <path d="m0.0625-2.9375h0.9375l0.79688 2 0.65625-2h0.9375l-1.2188 3.2188c-0.125 0.32031-0.27344 0.54688-0.4375 0.67188-0.16797 0.13281-0.38672 0.20312-0.65625 0.20312h-0.54688v-0.60938h0.29688c0.15625 0 0.26953-0.027344 0.34375-0.078125 0.070313-0.054688 0.12891-0.14844 0.17188-0.28125l0.03125-0.078125z"/>
  </symbol>
  <symbol id="e" overflow="visible">
   <path d="m0.42188-1.1406v-1.7969h0.9375v0.29688 0.59375 0.48438c0 0.24219 0.003906 0.41406 0.015625 0.51562 0.007812 0.10547 0.03125 0.17969 0.0625 0.21875 0.039062 0.0625 0.09375 0.10938 0.15625 0.14062s0.12891 0.046875 0.20312 0.046875c0.19531 0 0.34766-0.070313 0.45312-0.21875 0.11328-0.14453 0.17188-0.35156 0.17188-0.625v-1.4531h0.9375v2.9375h-0.9375v-0.42188c-0.13672 0.16797-0.28125 0.29297-0.4375 0.375-0.15625 0.082031-0.33594 0.125-0.53125 0.125-0.33594 0-0.58984-0.10156-0.76562-0.3125-0.17969-0.20703-0.26562-0.50781-0.26562-0.90625z"/>
  </symbol>
  <symbol id="t" overflow="visible">
   <path d="m0.3125-2.9375h2.5469v0.65625l-1.5469 1.6094h1.5469v0.67188h-2.625v-0.65625l1.5469-1.6094h-1.4688z"/>
  </symbol>
  <symbol id="i" overflow="visible">
   <path d="m0.45312-2.9375h0.9375v2.9375h-0.9375zm0-1.1406h0.9375v0.76562h-0.9375z"/>
  </symbol>
  <symbol id="s" overflow="visible">
   <path d="m2.7344-2.8438v0.71875c-0.19922-0.082031-0.39062-0.14453-0.57812-0.1875-0.1875-0.039062-0.36719-0.0625-0.53125-0.0625-0.17969 0-0.30859 0.023438-0.39062 0.0625-0.085937 0.042969-0.125 0.10938-0.125 0.20312 0 0.074219 0.03125 0.13281 0.09375 0.17188 0.0625 0.042969 0.17578 0.074219 0.34375 0.09375l0.17188 0.015625c0.47656 0.0625 0.80078 0.16797 0.96875 0.3125 0.16406 0.13672 0.25 0.35547 0.25 0.65625 0 0.3125-0.11719 0.54688-0.34375 0.70312-0.23047 0.15625-0.57422 0.23438-1.0312 0.23438-0.19922 0-0.40234-0.015625-0.60938-0.046875-0.19922-0.03125-0.40625-0.078125-0.625-0.14062v-0.70312c0.1875 0.085938 0.375 0.15234 0.5625 0.20312 0.19531 0.042969 0.39844 0.0625 0.60938 0.0625 0.17578 0 0.3125-0.023437 0.40625-0.078125 0.09375-0.050781 0.14062-0.125 0.14062-0.21875 0-0.082031-0.03125-0.14453-0.09375-0.1875-0.0625-0.039062-0.19531-0.070312-0.39062-0.09375l-0.15625-0.03125c-0.41797-0.050781-0.71094-0.14453-0.875-0.28125-0.16797-0.14453-0.25-0.35938-0.25-0.64062 0-0.3125 0.10156-0.53906 0.3125-0.6875 0.21875-0.15625 0.54688-0.23438 0.98438-0.23438 0.16406 0 0.34375 0.015625 0.53125 0.046875 0.19531 0.023437 0.40625 0.058594 0.625 0.10938z"/>
  </symbol>
  <symbol id="h" overflow="visible">
   <path d="m2.375-4.0781v0.625h-0.51562c-0.13672 0-0.23047 0.027344-0.28125 0.078125-0.054687 0.042969-0.078125 0.12109-0.078125 0.23438v0.20312h0.8125v0.67188h-0.8125v2.2656h-0.9375v-2.2656h-0.45312v-0.67188h0.45312v-0.20312c0-0.3125 0.085938-0.54688 0.26562-0.70312 0.1875-0.15625 0.46094-0.23438 0.82812-0.23438z"/>
  </symbol>
  <symbol id="d" overflow="visible">
   <path d="m1.8438-2.3281c-0.21094 0-0.37109 0.074219-0.48438 0.21875-0.10547 0.14844-0.15625 0.35938-0.15625 0.64062s0.050781 0.5 0.15625 0.65625c0.11328 0.14844 0.27344 0.21875 0.48438 0.21875 0.20703 0 0.36328-0.070312 0.46875-0.21875 0.10156-0.15625 0.15625-0.375 0.15625-0.65625s-0.054688-0.49219-0.15625-0.64062c-0.10547-0.14453-0.26172-0.21875-0.46875-0.21875zm0-0.67188c0.5 0 0.89062 0.13672 1.1719 0.40625 0.28906 0.27344 0.4375 0.64844 0.4375 1.125 0 0.49219-0.14844 0.87109-0.4375 1.1406-0.28125 0.27344-0.67188 0.40625-1.1719 0.40625s-0.89844-0.13281-1.1875-0.40625c-0.28125-0.26953-0.42188-0.64844-0.42188-1.1406 0-0.47656 0.14062-0.85156 0.42188-1.125 0.28906-0.26953 0.6875-0.40625 1.1875-0.40625z"/>
  </symbol>
  <symbol id="r" overflow="visible">
   <path d="m3.1719-2.4375c0.11328-0.1875 0.25-0.32812 0.40625-0.42188 0.16406-0.09375 0.34766-0.14062 0.54688-0.14062 0.33203 0 0.58594 0.10547 0.76562 0.3125 0.17578 0.21094 0.26562 0.51172 0.26562 0.90625v1.7812h-0.9375v-1.5312-0.0625-0.10938c0-0.20703-0.03125-0.35938-0.09375-0.45312-0.054688-0.09375-0.14844-0.14062-0.28125-0.14062-0.1875 0-0.32812 0.074219-0.42188 0.21875-0.09375 0.14844-0.14062 0.35938-0.14062 0.64062v1.4375h-0.95312v-1.5312c0-0.32031-0.027344-0.53125-0.078125-0.625-0.054688-0.09375-0.15234-0.14062-0.29688-0.14062-0.17969 0-0.32031 0.074219-0.42188 0.21875-0.09375 0.14844-0.14062 0.35938-0.14062 0.64062v1.4375h-0.95312v-2.9375h0.95312v0.4375c0.11328-0.16406 0.24219-0.28906 0.39062-0.375 0.14453-0.082031 0.3125-0.125 0.5-0.125 0.19531 0 0.375 0.054688 0.53125 0.15625 0.15625 0.09375 0.27344 0.23047 0.35938 0.40625z"/>
  </symbol>
  <symbol id="q" overflow="visible">
   <path d="m3.3906-1.7812v1.7812h-0.9375v-1.3594c0-0.25781-0.007813-0.4375-0.015625-0.53125-0.011719-0.09375-0.03125-0.16016-0.0625-0.20312-0.03125-0.0625-0.078125-0.10938-0.14062-0.14062-0.0625-0.039063-0.13672-0.0625-0.21875-0.0625-0.19922 0-0.35547 0.078125-0.46875 0.23438-0.10547 0.14844-0.15625 0.35547-0.15625 0.625v1.4375h-0.9375v-4.0781h0.9375v1.5781c0.13281-0.17578 0.28125-0.30078 0.4375-0.375 0.16406-0.082031 0.34375-0.125 0.53125-0.125 0.34375 0 0.59766 0.10547 0.76562 0.3125 0.17578 0.21094 0.26562 0.51172 0.26562 0.90625z"/>
  </symbol>
  <symbol id="p" overflow="visible">
   <path d="m0.48438-3.9062h1.1406l1.4062 2.6719v-2.6719h0.96875v3.9062h-1.125l-1.4219-2.6875v2.6875h-0.96875z"/>
  </symbol>
  <symbol id="o" overflow="visible">
   <path d="m3.3906-1.7812v1.7812h-0.9375v-1.3594c0-0.25781-0.007813-0.4375-0.015625-0.53125-0.011719-0.09375-0.03125-0.16016-0.0625-0.20312-0.03125-0.0625-0.078125-0.10938-0.14062-0.14062-0.0625-0.039063-0.13672-0.0625-0.21875-0.0625-0.19922 0-0.35547 0.078125-0.46875 0.23438-0.10547 0.14844-0.15625 0.35547-0.15625 0.625v1.4375h-0.9375v-2.9375h0.9375v0.4375c0.13281-0.17578 0.28125-0.30078 0.4375-0.375 0.16406-0.082031 0.34375-0.125 0.53125-0.125 0.34375 0 0.59766 0.10547 0.76562 0.3125 0.17578 0.21094 0.26562 0.51172 0.26562 0.90625z"/>
  </symbol>
  <symbol id="n" overflow="visible">
   <path d="m0.48438-3.9062h1.6875c0.48828 0 0.86328 0.10938 1.125 0.32812 0.26953 0.21875 0.40625 0.53906 0.40625 0.95312 0 0.40625-0.13672 0.71875-0.40625 0.9375-0.26172 0.21875-0.63672 0.32812-1.125 0.32812h-0.67188v1.3594h-1.0156zm1.0156 0.73438v1.0938h0.5625c0.1875 0 0.33203-0.046875 0.4375-0.14062 0.11328-0.10156 0.17188-0.23828 0.17188-0.40625 0-0.17578-0.058594-0.3125-0.17188-0.40625-0.10547-0.09375-0.25-0.14062-0.4375-0.14062z"/>
  </symbol>
  <symbol id="m" overflow="visible">
   <path d="m0.45312-2.9375h0.9375v2.8906c0 0.38281-0.09375 0.67969-0.28125 0.89062-0.1875 0.20703-0.46484 0.3125-0.82812 0.3125h-0.45312v-0.60938h0.15625c0.17578 0 0.29688-0.042969 0.35938-0.125 0.070312-0.085937 0.10938-0.24219 0.10938-0.46875zm0-1.1406h0.9375v0.76562h-0.9375z"/>
  </symbol>
  <symbol id="l" overflow="visible">
   <path d="m2.8125-2.8438v0.76562c-0.125-0.082031-0.25-0.14453-0.375-0.1875-0.125-0.039063-0.26172-0.0625-0.40625-0.0625-0.26172 0-0.46484 0.078125-0.60938 0.23438-0.14844 0.14844-0.21875 0.35547-0.21875 0.625 0 0.28125 0.070313 0.5 0.21875 0.65625 0.14453 0.14844 0.34766 0.21875 0.60938 0.21875 0.14453 0 0.28516-0.019531 0.42188-0.0625 0.13281-0.039062 0.25391-0.10938 0.35938-0.20312v0.76562c-0.14844 0.0625-0.29688 0.10156-0.45312 0.125-0.14844 0.03125-0.29297 0.046875-0.4375 0.046875-0.53125 0-0.94922-0.13281-1.25-0.40625-0.29297-0.26953-0.4375-0.64844-0.4375-1.1406 0-0.47656 0.14453-0.85156 0.4375-1.125 0.30078-0.26953 0.71875-0.40625 1.25-0.40625 0.15625 0 0.30469 0.015625 0.45312 0.046875 0.14453 0.023437 0.28906 0.058594 0.4375 0.10938z"/>
  </symbol>
 </defs>
 <g>
  <path d="m568.97 279.46-437.94 280.54v-560z" fill-rule="evenodd"/>
  <use x="131.03125" y="576.0625" xlink:href="#u"/>
  <use x="134.960938" y="576.0625" xlink:href="#b"/>
  <use x="137.601562" y="576.0625" xlink:href="#a"/>
  <use x="141.234375" y="576.0625" xlink:href="#g"/>
  <use x="144.84375" y="576.0625" xlink:href="#c"/>
  <use x="147.40625" y="576.0625" xlink:href="#a"/>
  <use x="151.035156" y="576.0625" xlink:href="#k"/>
  <use x="156.730469" y="576.0625" xlink:href="#j"/>
  <use x="160.5625" y="576.0625" xlink:href="#f"/>
  <use x="165.917969" y="576.0625" xlink:href="#e"/>
  <use x="169.730469" y="576.0625" xlink:href="#t"/>
  <use x="172.84375" y="576.0625" xlink:href="#a"/>
  <use x="176.476562" y="576.0625" xlink:href="#i"/>
  <use x="178.3125" y="576.0625" xlink:href="#b"/>
  <use x="182.816406" y="576.0625" xlink:href="#s"/>
  <use x="186.003906" y="576.0625" xlink:href="#f"/>
  <use x="189.492188" y="576.0625" xlink:href="#g"/>
  <use x="193.105469" y="576.0625" xlink:href="#b"/>
  <use x="195.746094" y="576.0625" xlink:href="#i"/>
  <use x="197.582031" y="576.0625" xlink:href="#a"/>
  <use x="201.210938" y="576.0625" xlink:href="#h"/>
  <use x="131.03125" y="581.414062" xlink:href="#h"/>
  <use x="133.363281" y="581.414062" xlink:href="#b"/>
  <use x="136.003906" y="581.414062" xlink:href="#d"/>
  <use x="139.679688" y="581.414062" xlink:href="#r"/>
  <use x="147.121094" y="581.414062" xlink:href="#c"/>
  <use x="149.683594" y="581.414062" xlink:href="#q"/>
  <use x="153.492188" y="581.414062" xlink:href="#a"/>
  <use x="158.988281" y="581.414062" xlink:href="#p"/>
  <use x="163.46875" y="581.414062" xlink:href="#d"/>
  <use x="167.148438" y="581.414062" xlink:href="#e"/>
  <use x="170.957031" y="581.414062" xlink:href="#o"/>
  <use x="176.632812" y="581.414062" xlink:href="#n"/>
  <use x="180.558594" y="581.414062" xlink:href="#b"/>
  <use x="183.199219" y="581.414062" xlink:href="#d"/>
  <use x="186.875" y="581.414062" xlink:href="#m"/>
  <use x="188.710938" y="581.414062" xlink:href="#a"/>
  <use x="192.339844" y="581.414062" xlink:href="#l"/>
  <use x="195.515625" y="581.414062" xlink:href="#c"/>
 </g>
</svg>
