<?xml version="1.0" encoding="UTF-8" standalone="no"?>
<!DOCTYPE svg PUBLIC "-//W3C//DTD SVG 1.1//EN" "http://www.w3.org/Graphics/SVG/1.1/DTD/svg11.dtd">
<svg width="100%" height="100%" viewBox="0 0 500 190" version="1.1" xmlns="http://www.w3.org/2000/svg" xmlns:xlink="http://www.w3.org/1999/xlink" xml:space="preserve" xmlns:serif="http://www.serif.com/" style="fill-rule:evenodd;clip-rule:evenodd;stroke-linejoin:round;stroke-miterlimit:2;">
    <g transform="matrix(1,0,0,1,-195.4,-213.114)">
        <g transform="matrix(0.5,0,0,0.316667,195.4,213.114)">
            <g id="Originals">
                <rect id="Transparent-White-Mode-Original" serif:id="Transparent White Mode Original" x="0" y="0" width="1000" height="600" style="fill:none;"/>
                <g id="Transparent-White-Mode-Original1" serif:id="Transparent White Mode Original">
                    <g id="Content" transform="matrix(1.18827,0,0,1.22538,-94.1359,-40.5552)">
                        <g id="Captions" transform="matrix(1.51574,0,0,1.50337,-262.473,-296.141)">
                            <g id="Second-Line" serif:id="Second Line" transform="matrix(1,0,0,1,0,87.424)">
                                <g id="Background" transform="matrix(0.892809,0,0,1.45971,88.2169,86.8811)">
                                    <path d="M667.338,122.5C667.338,121.527 666.502,120.738 665.472,120.738L256.279,120.738C255.249,120.738 254.413,121.527 254.413,122.5L254.413,177.696C254.413,178.668 255.249,179.458 256.279,179.458L665.472,179.458C666.502,179.458 667.338,178.668 667.338,177.696L667.338,122.5Z" style="fill:rgb(178,178,178);fill-opacity:0.7;"/>
                                </g>
                                <g id="Foreground" transform="matrix(0.879805,0,0,1.45971,91.5255,86.881)">
                                    <path d="M667.338,122.5C667.338,121.527 666.49,120.738 665.445,120.738L256.306,120.738C255.261,120.738 254.413,121.527 254.413,122.5L254.413,177.696C254.413,178.668 255.261,179.458 256.306,179.458L665.445,179.458C666.49,179.458 667.338,178.668 667.338,177.696L667.338,122.5Z" style="fill:rgb(41,41,41);fill-opacity:0.9;"/>
                                </g>
                                <g id="Pluggable-Caption-Engine" serif:id="Pluggable Caption Engine" transform="matrix(1.12981,0,0,1.70081,-8.1651,22.0146)">
                                    <g transform="matrix(29.2282,0,0,29.2282,603.859,174.84)">
                                    </g>
                                    <text x="289.256px" y="174.84px" style="font-family:'SFProDisplay-Regular', 'SF Pro Display';font-size:29.228px;fill:white;">Pluggable Caption Engine</text>
                                </g>
                            </g>
                            <g id="First-Line" serif:id="First Line">
                                <g id="Background1" serif:id="Background" transform="matrix(0.892809,0,0,1.45971,88.2169,76.6016)">
                                    <path d="M667.338,122.5C667.338,121.527 666.502,120.738 665.472,120.738L256.279,120.738C255.249,120.738 254.413,121.527 254.413,122.5L254.413,177.696C254.413,178.668 255.249,179.458 256.279,179.458L665.472,179.458C666.502,179.458 667.338,178.668 667.338,177.696L667.338,122.5Z" style="fill:rgb(178,178,178);fill-opacity:0.7;"/>
                                </g>
                                <g id="Foreground1" serif:id="Foreground" transform="matrix(0.349826,0,0,1.45971,226.359,76.6015)">
                                    <path d="M667.338,122.5C667.338,121.527 665.205,120.738 662.577,120.738L259.175,120.738C256.547,120.738 254.413,121.527 254.413,122.5L254.413,177.696C254.413,178.668 256.547,179.458 259.175,179.458L662.577,179.458C665.205,179.458 667.338,178.668 667.338,177.696L667.338,122.5Z" style="fill:rgb(41,41,41);fill-opacity:0.9;"/>
                                </g>
                                <g transform="matrix(1.12981,0,0,1.70081,-7.44838,20.6501)">
                                    <g transform="matrix(37.2911,0,0,37.2911,401.785,174.84)">
                                    </g>
                                    <text x="289.256px" y="174.84px" style="font-family:'SFProDisplay-Regular', 'SF Pro Display';font-size:37.291px;fill:white;">Sub 37</text>
                                </g>
                            </g>
                        </g>
                        <g id="Controls-Bar" serif:id="Controls Bar" transform="matrix(1.51574,0,0,1.50337,-262.473,-359.274)">
                            <g id="Pause-Symbol" serif:id="Pause Symbol" transform="matrix(1.30547,0,0,1.30547,-92.9461,-164.945)">
                                <g transform="matrix(1.11042,0,0,1.71451,2.96681,0.0960978)">
                                    <path d="M270.352,309.082C270.352,308.985 270.273,308.905 270.176,308.905L268.566,308.905C268.468,308.905 268.389,308.985 268.389,309.082L268.389,320.705C268.389,320.803 268.468,320.882 268.566,320.882L270.176,320.882C270.273,320.882 270.352,320.803 270.352,320.705L270.352,309.082Z" style="fill:rgb(50,50,50);"/>
                                </g>
                                <g transform="matrix(1.11042,0,0,1.71556,7.35314,-0.243208)">
                                    <path d="M270.352,309.082C270.352,308.985 270.273,308.905 270.176,308.905L268.566,308.905C268.468,308.905 268.389,308.985 268.389,309.082L268.389,320.705C268.389,320.803 268.468,320.882 268.566,320.882L270.176,320.882C270.273,320.882 270.352,320.803 270.352,320.705L270.352,309.082Z" style="fill:rgb(50,50,50);"/>
                                </g>
                            </g>
                            <g id="Timebar" transform="matrix(1.00032,0,0,1,-0.101941,4.40536e-13)">
                                <g transform="matrix(7.39602,0,0,3.07304,-1785.62,-428.063)">
                                    <path d="M333.896,314.635C333.896,313.755 333.704,313.042 333.468,313.042L284.496,313.042C284.26,313.042 284.068,313.755 284.068,314.635L284.068,315.391C284.068,316.27 284.26,316.984 284.496,316.984L333.468,316.984C333.704,316.984 333.896,316.27 333.896,315.391L333.896,314.635Z" style="fill:rgb(50,50,50);"/>
                                </g>
                                <g transform="matrix(18.8454,0,0,2.74056,-5045.26,-323.42)">
                                    <path d="M291.582,314.699C291.582,314.049 291.532,313.521 291.471,313.521L284.631,313.521C284.57,313.521 284.52,314.049 284.52,314.699L284.52,315.319C284.52,315.969 284.57,316.497 284.631,316.497L291.471,316.497C291.532,316.497 291.582,315.969 291.582,315.319L291.582,314.699Z" style="fill:white;"/>
                                </g>
                            </g>
                            <g id="Fullscreen-arrow" serif:id="Fullscreen arrow" transform="matrix(1.24397,0,0,1.24397,-169.612,-140.193)">
                                <g id="Top-right-corner" serif:id="Top-right corner" transform="matrix(1.15168,0,0,1.15168,-104.255,-80.0843)">
                                    <g id="Top" transform="matrix(0.443221,1.11022e-16,-4.71845e-16,0.89433,419.972,260.171)">
                                        <path d="M635.995,309.142C635.995,309.075 635.925,309.021 635.838,309.021L626.182,309.021C626.095,309.021 626.024,309.075 626.024,309.142L626.024,310.239C626.024,310.305 626.095,310.359 626.182,310.359L635.838,310.359C635.925,310.359 635.995,310.305 635.995,310.239L635.995,309.142Z" style="fill:rgb(50,50,50);"/>
                                    </g>
                                    <g id="Right" transform="matrix(-2.9499e-05,0.684425,-0.566522,-5.81893e-05,876.944,108.093)">
                                        <path d="M635.995,309.142C635.995,309.075 635.927,309.021 635.842,309.021L626.178,309.021C626.093,309.021 626.024,309.075 626.024,309.142L626.024,310.239C626.024,310.305 626.093,310.359 626.178,310.359L635.842,310.359C635.927,310.359 635.995,310.305 635.995,310.239L635.995,309.142Z" style="fill:rgb(50,50,50);"/>
                                    </g>
                                </g>
                                <g id="Top-left-corner" serif:id="Top-left corner" transform="matrix(1.15168,0,0,1.15168,-104.857,-80.0944)">
                                    <g id="Top1" serif:id="Top" transform="matrix(0.000203333,-0.684214,-0.579329,-0.000410284,869.842,971.836)">
                                        <path d="M635.995,309.142C635.995,309.075 635.925,309.021 635.838,309.021L626.182,309.021C626.095,309.021 626.024,309.075 626.024,309.142L626.024,310.239C626.024,310.305 626.095,310.359 626.182,310.359L635.838,310.359C635.925,310.359 635.995,310.305 635.995,310.239L635.995,309.142Z" style="fill:rgb(50,50,50);"/>
                                    </g>
                                    <g id="Right1" serif:id="Right" transform="matrix(-0.443221,-0.000268367,-0.000222205,0.874558,972.124,266.463)">
                                        <path d="M635.995,309.142C635.995,309.075 635.927,309.021 635.842,309.021L626.178,309.021C626.093,309.021 626.024,309.075 626.024,309.142L626.024,310.239C626.024,310.305 626.093,310.359 626.178,310.359L635.842,310.359C635.927,310.359 635.995,310.305 635.995,310.239L635.995,309.142Z" style="fill:rgb(50,50,50);"/>
                                    </g>
                                </g>
                                <g id="Bottom-right-corner" serif:id="Bottom-right corner" transform="matrix(1.15168,0,0,1.15168,-104.258,-80.3344)">
                                    <g id="Top2" serif:id="Top" transform="matrix(-0.00023114,0.684214,0.579329,0.000466393,522.203,116.97)">
                                        <path d="M635.995,309.142C635.995,309.075 635.925,309.021 635.838,309.021L626.182,309.021C626.095,309.021 626.024,309.075 626.024,309.142L626.024,310.239C626.024,310.305 626.095,310.359 626.182,310.359L635.838,310.359C635.925,310.359 635.995,310.305 635.995,310.239L635.995,309.142Z" style="fill:rgb(50,50,50);"/>
                                    </g>
                                    <g id="Right2" serif:id="Right" transform="matrix(0.443221,0.000311294,0.000257748,-0.874558,419.892,822.333)">
                                        <path d="M635.995,309.142C635.995,309.075 635.927,309.021 635.842,309.021L626.178,309.021C626.093,309.021 626.024,309.075 626.024,309.142L626.024,310.239C626.024,310.305 626.093,310.359 626.178,310.359L635.842,310.359C635.927,310.359 635.995,310.305 635.995,310.239L635.995,309.142Z" style="fill:rgb(50,50,50);"/>
                                    </g>
                                </g>
                                <g id="Bottom-left-corner" serif:id="Bottom-left corner" transform="matrix(1.14816,0,0,1.14816,-100.417,-81.494)">
                                    <g id="Top3" serif:id="Top" transform="matrix(-0.444578,-4.30584e-05,3.64578e-05,-0.897069,971.155,832.219)">
                                        <path d="M635.995,309.142C635.995,309.075 635.925,309.021 635.838,309.021L626.182,309.021C626.095,309.021 626.024,309.075 626.024,309.142L626.024,310.239C626.024,310.305 626.095,310.359 626.182,310.359L635.838,310.359C635.925,310.359 635.995,310.305 635.995,310.239L635.995,309.142Z" style="fill:rgb(50,50,50);"/>
                                    </g>
                                    <g id="Right3" serif:id="Right" transform="matrix(5.74903e-05,-0.686521,0.568257,0.000113404,512.777,984.718)">
                                        <path d="M635.995,309.142C635.995,309.075 635.927,309.021 635.842,309.021L626.178,309.021C626.093,309.021 626.024,309.075 626.024,309.142L626.024,310.239C626.024,310.305 626.093,310.359 626.178,310.359L635.842,310.359C635.927,310.359 635.995,310.305 635.995,310.239L635.995,309.142Z" style="fill:rgb(50,50,50);"/>
                                    </g>
                                </g>
                            </g>
                        </g>
                    </g>
                </g>
            </g>
        </g>
    </g>
</svg>
