<?xml version="1.0" encoding="UTF-8" standalone="no"?><!DOCTYPE svg PUBLIC "-//W3C//DTD SVG 1.1//EN" "http://www.w3.org/Graphics/SVG/1.1/DTD/svg11.dtd"><svg width="100%" height="100%" viewBox="0 0 500 190" version="1.1" xmlns="http://www.w3.org/2000/svg" xmlns:xlink="http://www.w3.org/1999/xlink" xml:space="preserve" xmlns:serif="http://www.serif.com/" style="fill-rule:evenodd;clip-rule:evenodd;stroke-linejoin:round;stroke-miterlimit:2;"><g transform="matrix(1,0,0,1,-194.702,0)"><g transform="matrix(0.5,0,0,0.316667,194.702,0)"><g id="Originals"><rect id="Transparent-Dark-Mode-Original" serif:id="Transparent Dark Mode Original" x="0" y="0" width="1000" height="600" style="fill:none;"/><g id="Transparent-Dark-Mode-Original1" serif:id="Transparent Dark Mode Original"><g id="Contents" transform="matrix(1.18827,0,0,1.22538,-94.1359,-40.7964)"><g id="Captions" transform="matrix(1.51574,0,0,1.50337,-262.473,-296.141)"><g id="Second-Line" serif:id="Second Line" transform="matrix(1,0,0,1,0,87.424)"><g id="Background" transform="matrix(0.892809,0,0,1.45971,88.2169,86.8811)"><path d="M667.338,122.5C667.338,121.527 666.502,120.738 665.472,120.738L256.279,120.738C255.249,120.738 254.413,121.527 254.413,122.5L254.413,177.696C254.413,178.668 255.249,179.458 256.279,179.458L665.472,179.458C666.502,179.458 667.338,178.668 667.338,177.696L667.338,122.5Z" style="fill:rgb(110,110,110);fill-opacity:0.7;"/></g><g id="Foreground" transform="matrix(0.879805,0,0,1.45971,91.5255,86.881)"><path d="M667.338,122.5C667.338,121.527 666.49,120.738 665.445,120.738L256.306,120.738C255.261,120.738 254.413,121.527 254.413,122.5L254.413,177.696C254.413,178.668 255.261,179.458 256.306,179.458L665.445,179.458C666.49,179.458 667.338,178.668 667.338,177.696L667.338,122.5Z" style="fill:white;fill-opacity:0.9;"/></g><g id="Pluggable-Caption-Engine" serif:id="Pluggable Caption Engine" transform="matrix(1.12981,0,0,1.70081,-8.1651,22.0146)"><g transform="matrix(29.2282,0,0,29.2282,289.256,174.84)"><path d="M0.068,-0L0.156,-0L0.156,-0.251L0.319,-0.251C0.452,-0.251 0.545,-0.345 0.545,-0.479L0.545,-0.479C0.545,-0.613 0.452,-0.705 0.319,-0.705L0.068,-0.705L0.068,-0ZM0.297,-0.626C0.397,-0.626 0.456,-0.571 0.456,-0.479L0.456,-0.478C0.456,-0.385 0.397,-0.33 0.297,-0.33L0.156,-0.33L0.156,-0.626L0.297,-0.626Z" style="fill-rule:nonzero;"/></g><g transform="matrix(29.2282,0,0,29.2282,306.139,174.84)"><rect x="0.06" y="-0.705" width="0.085" height="0.705" style="fill-rule:nonzero;"/></g><g transform="matrix(29.2282,0,0,29.2282,312.105,174.84)"><path d="M0.229,0.01C0.306,0.01 0.357,-0.025 0.385,-0.072L0.387,-0.072L0.387,-0L0.472,-0L0.472,-0.508L0.387,-0.508L0.387,-0.209C0.387,-0.123 0.334,-0.065 0.254,-0.065C0.176,-0.065 0.138,-0.111 0.138,-0.193L0.138,-0.508L0.053,-0.508L0.053,-0.178C0.053,-0.063 0.117,0.01 0.229,0.01Z" style="fill-rule:nonzero;"/></g><g transform="matrix(29.2282,0,0,29.2282,327.504,174.84)"><path d="M0.27,0.181C0.408,0.181 0.494,0.104 0.494,-0.014L0.494,-0.508L0.409,-0.508L0.409,-0.422L0.407,-0.422C0.376,-0.479 0.319,-0.518 0.248,-0.518C0.119,-0.518 0.03,-0.415 0.03,-0.257L0.03,-0.257C0.03,-0.098 0.118,0.005 0.246,0.005C0.318,0.005 0.377,-0.031 0.407,-0.087L0.409,-0.087L0.409,-0.022C0.409,0.056 0.358,0.105 0.269,0.105C0.2,0.105 0.151,0.083 0.135,0.046L0.133,0.042L0.048,0.042L0.049,0.046C0.065,0.122 0.145,0.181 0.27,0.181ZM0.264,-0.07C0.174,-0.07 0.117,-0.142 0.117,-0.257L0.117,-0.257C0.117,-0.37 0.174,-0.442 0.264,-0.442C0.35,-0.442 0.409,-0.369 0.409,-0.257L0.409,-0.257C0.409,-0.144 0.351,-0.07 0.264,-0.07Z" style="fill-rule:nonzero;"/></g><g transform="matrix(29.2282,0,0,29.2282,343.545,174.84)"><path d="M0.27,0.181C0.408,0.181 0.494,0.104 0.494,-0.014L0.494,-0.508L0.409,-0.508L0.409,-0.422L0.407,-0.422C0.376,-0.479 0.319,-0.518 0.248,-0.518C0.119,-0.518 0.03,-0.415 0.03,-0.257L0.03,-0.257C0.03,-0.098 0.118,0.005 0.246,0.005C0.318,0.005 0.377,-0.031 0.407,-0.087L0.409,-0.087L0.409,-0.022C0.409,0.056 0.358,0.105 0.269,0.105C0.2,0.105 0.151,0.083 0.135,0.046L0.133,0.042L0.048,0.042L0.049,0.046C0.065,0.122 0.145,0.181 0.27,0.181ZM0.264,-0.07C0.174,-0.07 0.117,-0.142 0.117,-0.257L0.117,-0.257C0.117,-0.37 0.174,-0.442 0.264,-0.442C0.35,-0.442 0.409,-0.369 0.409,-0.257L0.409,-0.257C0.409,-0.144 0.351,-0.07 0.264,-0.07Z" style="fill-rule:nonzero;"/></g><g transform="matrix(29.2282,0,0,29.2282,359.586,174.84)"><path d="M0.204,0.01C0.271,0.01 0.333,-0.027 0.362,-0.083L0.364,-0.083L0.364,-0L0.449,-0L0.449,-0.351C0.449,-0.453 0.374,-0.518 0.254,-0.518C0.134,-0.518 0.062,-0.45 0.054,-0.367L0.054,-0.361L0.136,-0.361L0.137,-0.366C0.146,-0.411 0.188,-0.442 0.253,-0.442C0.324,-0.442 0.364,-0.405 0.364,-0.343L0.364,-0.3L0.219,-0.292C0.102,-0.285 0.035,-0.231 0.035,-0.145L0.035,-0.144C0.035,-0.051 0.103,0.01 0.204,0.01ZM0.122,-0.144L0.122,-0.145C0.122,-0.192 0.161,-0.222 0.229,-0.226L0.364,-0.234L0.364,-0.193C0.364,-0.119 0.303,-0.064 0.223,-0.064C0.162,-0.064 0.122,-0.095 0.122,-0.144Z" style="fill-rule:nonzero;"/></g><g transform="matrix(29.2282,0,0,29.2282,374.258,174.84)"><path d="M0.308,0.01C0.438,0.01 0.523,-0.094 0.523,-0.254L0.523,-0.254C0.523,-0.415 0.437,-0.518 0.309,-0.518C0.237,-0.518 0.178,-0.481 0.146,-0.423L0.145,-0.423L0.145,-0.705L0.06,-0.705L0.06,-0L0.145,-0L0.145,-0.086L0.146,-0.086C0.178,-0.027 0.235,0.01 0.308,0.01ZM0.291,-0.065C0.205,-0.065 0.144,-0.14 0.144,-0.254L0.144,-0.254C0.144,-0.368 0.206,-0.442 0.291,-0.442C0.381,-0.442 0.437,-0.37 0.437,-0.254L0.437,-0.254C0.437,-0.137 0.381,-0.065 0.291,-0.065Z" style="fill-rule:nonzero;"/></g><g transform="matrix(29.2282,0,0,29.2282,390.442,174.84)"><rect x="0.06" y="-0.705" width="0.085" height="0.705" style="fill-rule:nonzero;"/></g><g transform="matrix(29.2282,0,0,29.2282,396.407,174.84)"><path d="M0.264,0.01C0.375,0.01 0.458,-0.057 0.475,-0.141L0.476,-0.146L0.392,-0.146L0.391,-0.141C0.376,-0.098 0.331,-0.065 0.266,-0.065C0.176,-0.065 0.118,-0.126 0.116,-0.231L0.482,-0.231L0.482,-0.262C0.482,-0.415 0.397,-0.518 0.259,-0.518C0.12,-0.518 0.03,-0.41 0.03,-0.252L0.03,-0.252C0.03,-0.092 0.118,0.01 0.264,0.01ZM0.258,-0.442C0.333,-0.442 0.387,-0.396 0.396,-0.297L0.118,-0.297C0.127,-0.392 0.185,-0.442 0.258,-0.442Z" style="fill-rule:nonzero;"/></g><g transform="matrix(29.2282,0,0,29.2282,417.372,174.84)"><path d="M0.363,0.012C0.51,0.012 0.623,-0.076 0.65,-0.21L0.651,-0.215L0.562,-0.215L0.561,-0.211C0.53,-0.118 0.461,-0.069 0.363,-0.069C0.223,-0.069 0.131,-0.181 0.131,-0.353L0.131,-0.353C0.131,-0.524 0.222,-0.635 0.363,-0.635C0.462,-0.635 0.531,-0.585 0.559,-0.5L0.562,-0.489L0.651,-0.489L0.65,-0.494C0.623,-0.627 0.509,-0.716 0.363,-0.716C0.167,-0.716 0.041,-0.575 0.041,-0.353L0.041,-0.353C0.041,-0.131 0.167,0.012 0.363,0.012Z" style="fill-rule:nonzero;"/></g><g transform="matrix(29.2282,0,0,29.2282,437.424,174.84)"><path d="M0.204,0.01C0.271,0.01 0.333,-0.027 0.362,-0.083L0.364,-0.083L0.364,-0L0.449,-0L0.449,-0.351C0.449,-0.453 0.374,-0.518 0.254,-0.518C0.134,-0.518 0.062,-0.45 0.054,-0.367L0.054,-0.361L0.136,-0.361L0.137,-0.366C0.146,-0.411 0.188,-0.442 0.253,-0.442C0.324,-0.442 0.364,-0.405 0.364,-0.343L0.364,-0.3L0.219,-0.292C0.102,-0.285 0.035,-0.231 0.035,-0.145L0.035,-0.144C0.035,-0.051 0.103,0.01 0.204,0.01ZM0.122,-0.144L0.122,-0.145C0.122,-0.192 0.161,-0.222 0.229,-0.226L0.364,-0.234L0.364,-0.193C0.364,-0.119 0.303,-0.064 0.223,-0.064C0.162,-0.064 0.122,-0.095 0.122,-0.144Z" style="fill-rule:nonzero;"/></g><g transform="matrix(29.2282,0,0,29.2282,452.095,174.84)"><path d="M0.055,0.171L0.14,0.171L0.14,-0.085L0.142,-0.085C0.174,-0.026 0.233,0.01 0.305,0.01C0.432,0.01 0.519,-0.093 0.519,-0.253L0.519,-0.254C0.519,-0.414 0.433,-0.518 0.303,-0.518C0.23,-0.518 0.174,-0.481 0.142,-0.422L0.14,-0.422L0.14,-0.508L0.055,-0.508L0.055,0.171ZM0.287,-0.065C0.201,-0.065 0.14,-0.14 0.14,-0.253L0.14,-0.254C0.14,-0.368 0.201,-0.442 0.287,-0.442C0.376,-0.442 0.432,-0.371 0.432,-0.254L0.432,-0.253C0.432,-0.138 0.376,-0.065 0.287,-0.065Z" style="fill-rule:nonzero;"/></g><g transform="matrix(29.2282,0,0,29.2282,468.15,174.84)"><path d="M0.22,0.01C0.237,0.01 0.255,0.008 0.266,0.006L0.266,-0.063C0.258,-0.062 0.249,-0.061 0.238,-0.061C0.193,-0.061 0.169,-0.076 0.169,-0.13L0.169,-0.438L0.266,-0.438L0.266,-0.508L0.169,-0.508L0.169,-0.645L0.081,-0.645L0.081,-0.508L0.007,-0.508L0.007,-0.438L0.081,-0.438L0.081,-0.129C0.081,-0.032 0.127,0.01 0.22,0.01Z" style="fill-rule:nonzero;"/></g><g transform="matrix(29.2282,0,0,29.2282,476.956,174.84)"><path d="M0.103,-0.594C0.133,-0.594 0.156,-0.618 0.156,-0.647C0.156,-0.677 0.133,-0.7 0.103,-0.7C0.074,-0.7 0.05,-0.677 0.05,-0.647C0.05,-0.618 0.074,-0.594 0.103,-0.594ZM0.061,-0L0.146,-0L0.146,-0.508L0.061,-0.508L0.061,-0Z" style="fill-rule:nonzero;"/></g><g transform="matrix(29.2282,0,0,29.2282,482.979,174.84)"><path d="M0.266,0.01C0.406,0.01 0.5,-0.092 0.5,-0.254L0.5,-0.255C0.5,-0.417 0.405,-0.518 0.265,-0.518C0.125,-0.518 0.03,-0.417 0.03,-0.255L0.03,-0.254C0.03,-0.092 0.125,0.01 0.266,0.01ZM0.266,-0.065C0.176,-0.065 0.117,-0.134 0.117,-0.254L0.117,-0.255C0.117,-0.374 0.177,-0.442 0.265,-0.442C0.355,-0.442 0.414,-0.374 0.414,-0.255L0.414,-0.254C0.414,-0.135 0.355,-0.065 0.266,-0.065Z" style="fill-rule:nonzero;"/></g><g transform="matrix(29.2282,0,0,29.2282,498.492,174.84)"><path d="M0.055,-0L0.14,-0L0.14,-0.299C0.14,-0.385 0.192,-0.442 0.272,-0.442C0.351,-0.442 0.389,-0.397 0.389,-0.314L0.389,-0L0.474,-0L0.474,-0.33C0.474,-0.445 0.41,-0.518 0.298,-0.518C0.221,-0.518 0.169,-0.483 0.142,-0.436L0.14,-0.436L0.14,-0.508L0.055,-0.508L0.055,-0Z" style="fill-rule:nonzero;"/></g><g transform="matrix(29.2282,0,0,29.2282,519.885,174.84)"><path d="M0.068,-0L0.505,-0L0.505,-0.079L0.156,-0.079L0.156,-0.321L0.487,-0.321L0.487,-0.399L0.156,-0.399L0.156,-0.625L0.505,-0.625L0.505,-0.705L0.068,-0.705L0.068,-0Z" style="fill-rule:nonzero;"/></g><g transform="matrix(29.2282,0,0,29.2282,536.026,174.84)"><path d="M0.055,-0L0.14,-0L0.14,-0.299C0.14,-0.385 0.192,-0.442 0.272,-0.442C0.351,-0.442 0.389,-0.397 0.389,-0.314L0.389,-0L0.474,-0L0.474,-0.33C0.474,-0.445 0.41,-0.518 0.298,-0.518C0.221,-0.518 0.169,-0.483 0.142,-0.436L0.14,-0.436L0.14,-0.508L0.055,-0.508L0.055,-0Z" style="fill-rule:nonzero;"/></g><g transform="matrix(29.2282,0,0,29.2282,551.425,174.84)"><path d="M0.27,0.181C0.408,0.181 0.494,0.104 0.494,-0.014L0.494,-0.508L0.409,-0.508L0.409,-0.422L0.407,-0.422C0.376,-0.479 0.319,-0.518 0.248,-0.518C0.119,-0.518 0.03,-0.415 0.03,-0.257L0.03,-0.257C0.03,-0.098 0.118,0.005 0.246,0.005C0.318,0.005 0.377,-0.031 0.407,-0.087L0.409,-0.087L0.409,-0.022C0.409,0.056 0.358,0.105 0.269,0.105C0.2,0.105 0.151,0.083 0.135,0.046L0.133,0.042L0.048,0.042L0.049,0.046C0.065,0.122 0.145,0.181 0.27,0.181ZM0.264,-0.07C0.174,-0.07 0.117,-0.142 0.117,-0.257L0.117,-0.257C0.117,-0.37 0.174,-0.442 0.264,-0.442C0.35,-0.442 0.409,-0.369 0.409,-0.257L0.409,-0.257C0.409,-0.144 0.351,-0.07 0.264,-0.07Z" style="fill-rule:nonzero;"/></g><g transform="matrix(29.2282,0,0,29.2282,567.466,174.84)"><path d="M0.103,-0.594C0.133,-0.594 0.156,-0.618 0.156,-0.647C0.156,-0.677 0.133,-0.7 0.103,-0.7C0.074,-0.7 0.05,-0.677 0.05,-0.647C0.05,-0.618 0.074,-0.594 0.103,-0.594ZM0.061,-0L0.146,-0L0.146,-0.508L0.061,-0.508L0.061,-0Z" style="fill-rule:nonzero;"/></g><g transform="matrix(29.2282,0,0,29.2282,573.489,174.84)"><path d="M0.055,-0L0.14,-0L0.14,-0.299C0.14,-0.385 0.192,-0.442 0.272,-0.442C0.351,-0.442 0.389,-0.397 0.389,-0.314L0.389,-0L0.474,-0L0.474,-0.33C0.474,-0.445 0.41,-0.518 0.298,-0.518C0.221,-0.518 0.169,-0.483 0.142,-0.436L0.14,-0.436L0.14,-0.508L0.055,-0.508L0.055,-0Z" style="fill-rule:nonzero;"/></g><g transform="matrix(29.2282,0,0,29.2282,588.888,174.84)"><path d="M0.264,0.01C0.375,0.01 0.458,-0.057 0.475,-0.141L0.476,-0.146L0.392,-0.146L0.391,-0.141C0.376,-0.098 0.331,-0.065 0.266,-0.065C0.176,-0.065 0.118,-0.126 0.116,-0.231L0.482,-0.231L0.482,-0.262C0.482,-0.415 0.397,-0.518 0.259,-0.518C0.12,-0.518 0.03,-0.41 0.03,-0.252L0.03,-0.252C0.03,-0.092 0.118,0.01 0.264,0.01ZM0.258,-0.442C0.333,-0.442 0.387,-0.396 0.396,-0.297L0.118,-0.297C0.127,-0.392 0.185,-0.442 0.258,-0.442Z" style="fill-rule:nonzero;"/></g></g></g><g id="First-Line" serif:id="First Line"><g id="Background1" serif:id="Background" transform="matrix(0.892809,0,0,1.45971,88.2169,76.6016)"><path d="M667.338,122.5C667.338,121.527 666.502,120.738 665.472,120.738L256.279,120.738C255.249,120.738 254.413,121.527 254.413,122.5L254.413,177.696C254.413,178.668 255.249,179.458 256.279,179.458L665.472,179.458C666.502,179.458 667.338,178.668 667.338,177.696L667.338,122.5Z" style="fill:rgb(110,110,110);fill-opacity:0.7;"/></g><g id="Foreground1" serif:id="Foreground" transform="matrix(0.351319,0,0,1.45971,225.979,76.6015)"><path d="M667.338,122.5C667.338,121.527 665.214,120.738 662.597,120.738L259.154,120.738C256.538,120.738 254.413,121.527 254.413,122.5L254.413,177.696C254.413,178.668 256.538,179.458 259.154,179.458L662.597,179.458C665.214,179.458 667.338,178.668 667.338,177.696L667.338,122.5Z" style="fill:white;fill-opacity:0.9;"/></g><g transform="matrix(1.12981,0,0,1.70081,-7.44838,20.6501)"><g transform="matrix(37.2911,0,0,37.2911,289.256,174.84)"><path d="M0.299,0.012C0.46,0.012 0.559,-0.067 0.559,-0.192L0.559,-0.193C0.559,-0.3 0.499,-0.359 0.354,-0.391L0.276,-0.408C0.184,-0.428 0.142,-0.464 0.142,-0.521L0.142,-0.522C0.142,-0.59 0.203,-0.635 0.297,-0.635C0.387,-0.635 0.447,-0.593 0.458,-0.521L0.458,-0.514L0.546,-0.514L0.546,-0.521C0.538,-0.637 0.438,-0.716 0.3,-0.716C0.155,-0.716 0.052,-0.635 0.052,-0.52L0.052,-0.519C0.052,-0.416 0.116,-0.354 0.254,-0.324L0.332,-0.307C0.429,-0.285 0.469,-0.25 0.469,-0.188L0.469,-0.188C0.469,-0.115 0.405,-0.069 0.304,-0.069C0.202,-0.069 0.133,-0.113 0.123,-0.184L0.122,-0.19L0.034,-0.19L0.035,-0.184C0.043,-0.063 0.146,0.012 0.299,0.012Z" style="fill-rule:nonzero;"/></g><g transform="matrix(37.2911,0,0,37.2911,311.38,174.84)"><path d="M0.229,0.01C0.306,0.01 0.357,-0.025 0.385,-0.072L0.387,-0.072L0.387,-0L0.472,-0L0.472,-0.508L0.387,-0.508L0.387,-0.209C0.387,-0.123 0.334,-0.065 0.254,-0.065C0.176,-0.065 0.138,-0.111 0.138,-0.193L0.138,-0.508L0.053,-0.508L0.053,-0.178C0.053,-0.063 0.117,0.01 0.229,0.01Z" style="fill-rule:nonzero;"/></g><g transform="matrix(37.2911,0,0,37.2911,331.027,174.84)"><path d="M0.308,0.01C0.438,0.01 0.523,-0.094 0.523,-0.254L0.523,-0.254C0.523,-0.415 0.437,-0.518 0.309,-0.518C0.237,-0.518 0.178,-0.481 0.146,-0.423L0.145,-0.423L0.145,-0.705L0.06,-0.705L0.06,-0L0.145,-0L0.145,-0.086L0.146,-0.086C0.178,-0.027 0.235,0.01 0.308,0.01ZM0.291,-0.065C0.205,-0.065 0.144,-0.14 0.144,-0.254L0.144,-0.254C0.144,-0.368 0.206,-0.442 0.291,-0.442C0.381,-0.442 0.437,-0.37 0.437,-0.254L0.437,-0.254C0.437,-0.137 0.381,-0.065 0.291,-0.065Z" style="fill-rule:nonzero;"/></g><g transform="matrix(37.2911,0,0,37.2911,359.323,174.84)"><path d="M0.294,0.012C0.436,0.012 0.539,-0.075 0.539,-0.193L0.539,-0.194C0.539,-0.294 0.469,-0.358 0.367,-0.367L0.367,-0.369C0.455,-0.387 0.516,-0.447 0.516,-0.534L0.516,-0.535C0.516,-0.642 0.428,-0.716 0.293,-0.716C0.162,-0.716 0.071,-0.64 0.06,-0.525L0.059,-0.52L0.144,-0.52L0.144,-0.525C0.151,-0.596 0.21,-0.64 0.293,-0.64C0.379,-0.64 0.428,-0.598 0.428,-0.524L0.428,-0.523C0.428,-0.453 0.369,-0.401 0.285,-0.401L0.201,-0.401L0.201,-0.327L0.289,-0.327C0.388,-0.327 0.45,-0.278 0.45,-0.192L0.45,-0.191C0.45,-0.116 0.387,-0.064 0.294,-0.064C0.201,-0.064 0.137,-0.112 0.13,-0.182L0.129,-0.187L0.045,-0.187L0.045,-0.181C0.055,-0.069 0.149,0.012 0.294,0.012Z" style="fill-rule:nonzero;"/></g><g transform="matrix(37.2911,0,0,37.2911,381.391,174.84)"><path d="M0.098,-0L0.19,-0L0.503,-0.623L0.503,-0.705L0.037,-0.705L0.037,-0.626L0.417,-0.626L0.417,-0.625L0.098,-0Z" style="fill-rule:nonzero;"/></g></g></g></g><g id="Controls-Bar" serif:id="Controls Bar" transform="matrix(1.51574,0,0,1.50337,-262.473,-359.274)"><g id="Pause-Symbol" serif:id="Pause Symbol" transform="matrix(1.30547,0,0,1.30547,-92.9461,-164.945)"><g transform="matrix(1.11042,0,0,1.71451,2.96681,0.0960978)"><path d="M270.352,309.082C270.352,308.985 270.273,308.905 270.176,308.905L268.566,308.905C268.468,308.905 268.389,308.985 268.389,309.082L268.389,320.705C268.389,320.803 268.468,320.882 268.566,320.882L270.176,320.882C270.273,320.882 270.352,320.803 270.352,320.705L270.352,309.082Z" style="fill:white;"/></g><g transform="matrix(1.11042,0,0,1.71556,7.35314,-0.243208)"><path d="M270.352,309.082C270.352,308.985 270.273,308.905 270.176,308.905L268.566,308.905C268.468,308.905 268.389,308.985 268.389,309.082L268.389,320.705C268.389,320.803 268.468,320.882 268.566,320.882L270.176,320.882C270.273,320.882 270.352,320.803 270.352,320.705L270.352,309.082Z" style="fill:white;"/></g></g><g id="Timebar" transform="matrix(1.00032,0,0,1,-0.101941,4.40536e-13)"><g transform="matrix(7.39602,0,0,3.07304,-1785.62,-428.063)"><path d="M333.896,314.635C333.896,313.755 333.704,313.042 333.468,313.042L284.496,313.042C284.26,313.042 284.068,313.755 284.068,314.635L284.068,315.391C284.068,316.27 284.26,316.984 284.496,316.984L333.468,316.984C333.704,316.984 333.896,316.27 333.896,315.391L333.896,314.635Z" style="fill:white;"/></g><g transform="matrix(18.8454,0,0,2.74056,-5045.26,-323.42)"><path d="M291.582,314.699C291.582,314.049 291.532,313.521 291.471,313.521L284.631,313.521C284.57,313.521 284.52,314.049 284.52,314.699L284.52,315.319C284.52,315.969 284.57,316.497 284.631,316.497L291.471,316.497C291.532,316.497 291.582,315.969 291.582,315.319L291.582,314.699Z" style="fill:rgb(50,50,50);"/></g></g><g id="Fullscreen-arrow" serif:id="Fullscreen arrow" transform="matrix(1.24397,0,0,1.24397,-169.612,-140.193)"><g id="Top-right-corner" serif:id="Top-right corner" transform="matrix(1.15168,0,0,1.15168,-104.255,-80.0843)"><g id="Top" transform="matrix(0.443221,1.11022e-16,-4.71845e-16,0.89433,419.972,260.171)"><path d="M635.995,309.142C635.995,309.075 635.925,309.021 635.838,309.021L626.182,309.021C626.095,309.021 626.024,309.075 626.024,309.142L626.024,310.239C626.024,310.305 626.095,310.359 626.182,310.359L635.838,310.359C635.925,310.359 635.995,310.305 635.995,310.239L635.995,309.142Z" style="fill:white;"/></g><g id="Right" transform="matrix(-2.9499e-05,0.684425,-0.566522,-5.81893e-05,876.944,108.093)"><path d="M635.995,309.142C635.995,309.075 635.927,309.021 635.842,309.021L626.178,309.021C626.093,309.021 626.024,309.075 626.024,309.142L626.024,310.239C626.024,310.305 626.093,310.359 626.178,310.359L635.842,310.359C635.927,310.359 635.995,310.305 635.995,310.239L635.995,309.142Z" style="fill:white;"/></g></g><g id="Top-left-corner" serif:id="Top-left corner" transform="matrix(1.15168,0,0,1.15168,-104.857,-80.0944)"><g id="Top1" serif:id="Top" transform="matrix(0.000203333,-0.684214,-0.579329,-0.000410284,869.842,971.836)"><path d="M635.995,309.142C635.995,309.075 635.925,309.021 635.838,309.021L626.182,309.021C626.095,309.021 626.024,309.075 626.024,309.142L626.024,310.239C626.024,310.305 626.095,310.359 626.182,310.359L635.838,310.359C635.925,310.359 635.995,310.305 635.995,310.239L635.995,309.142Z" style="fill:white;"/></g><g id="Right1" serif:id="Right" transform="matrix(-0.443221,-0.000268367,-0.000222205,0.874558,972.124,266.463)"><path d="M635.995,309.142C635.995,309.075 635.927,309.021 635.842,309.021L626.178,309.021C626.093,309.021 626.024,309.075 626.024,309.142L626.024,310.239C626.024,310.305 626.093,310.359 626.178,310.359L635.842,310.359C635.927,310.359 635.995,310.305 635.995,310.239L635.995,309.142Z" style="fill:white;"/></g></g><g id="Bottom-right-corner" serif:id="Bottom-right corner" transform="matrix(1.15168,0,0,1.15168,-104.258,-80.3344)"><g id="Top2" serif:id="Top" transform="matrix(-0.00023114,0.684214,0.579329,0.000466393,522.203,116.97)"><path d="M635.995,309.142C635.995,309.075 635.925,309.021 635.838,309.021L626.182,309.021C626.095,309.021 626.024,309.075 626.024,309.142L626.024,310.239C626.024,310.305 626.095,310.359 626.182,310.359L635.838,310.359C635.925,310.359 635.995,310.305 635.995,310.239L635.995,309.142Z" style="fill:white;"/></g><g id="Right2" serif:id="Right" transform="matrix(0.443221,0.000311294,0.000257748,-0.874558,419.892,822.333)"><path d="M635.995,309.142C635.995,309.075 635.927,309.021 635.842,309.021L626.178,309.021C626.093,309.021 626.024,309.075 626.024,309.142L626.024,310.239C626.024,310.305 626.093,310.359 626.178,310.359L635.842,310.359C635.927,310.359 635.995,310.305 635.995,310.239L635.995,309.142Z" style="fill:white;"/></g></g><g id="Bottom-left-corner" serif:id="Bottom-left corner" transform="matrix(1.14816,0,0,1.14816,-100.417,-81.494)"><g id="Top3" serif:id="Top" transform="matrix(-0.444578,-4.30584e-05,3.64578e-05,-0.897069,971.155,832.219)"><path d="M635.995,309.142C635.995,309.075 635.925,309.021 635.838,309.021L626.182,309.021C626.095,309.021 626.024,309.075 626.024,309.142L626.024,310.239C626.024,310.305 626.095,310.359 626.182,310.359L635.838,310.359C635.925,310.359 635.995,310.305 635.995,310.239L635.995,309.142Z" style="fill:white;"/></g><g id="Right3" serif:id="Right" transform="matrix(5.74903e-05,-0.686521,0.568257,0.000113404,512.777,984.718)"><path d="M635.995,309.142C635.995,309.075 635.927,309.021 635.842,309.021L626.178,309.021C626.093,309.021 626.024,309.075 626.024,309.142L626.024,310.239C626.024,310.305 626.093,310.359 626.178,310.359L635.842,310.359C635.927,310.359 635.995,310.305 635.995,310.239L635.995,309.142Z" style="fill:white;"/></g></g></g></g></g></g></g></g></g></svg>