<?xml version="1.0" encoding="UTF-8" standalone="no"?><!DOCTYPE svg PUBLIC "-//W3C//DTD SVG 1.1//EN" "http://www.w3.org/Graphics/SVG/1.1/DTD/svg11.dtd"><svg width="100%" height="100%" viewBox="0 0 5334 834" version="1.1" xmlns="http://www.w3.org/2000/svg" xmlns:xlink="http://www.w3.org/1999/xlink" xml:space="preserve" xmlns:serif="http://www.serif.com/" style="fill-rule:evenodd;clip-rule:evenodd;stroke-linejoin:round;stroke-miterlimit:2;"><rect id="Artboard1" x="0" y="0" width="5333.33" height="833.333" style="fill:#fff;"/><clipPath id="_clip1"><rect id="Artboard11" serif:id="Artboard1" x="0" y="0" width="5333.33" height="833.333"/></clipPath><g clip-path="url(#_clip1)"><g id="Section-1" serif:id="Section 1"><g transform="matrix(4.16667,0,0,4.16667,27.1887,429.181)"><text x="0px" y="24.271px" style="font-family:'ArialMT', 'Arial', sans-serif;font-size:22px;">00:00:12.500 --&gt; 00:00:32.500 region:fred</text><g transform="matrix(22,0,0,22,356.727,58.991)"></g><text x="0px" y="58.991px" style="font-family:'ArialMT', 'Arial', sans-serif;font-size:22px;">&lt;v Fred&gt;OK, &lt;b&gt;let’<tspan x="197.71px 208.71px " y="58.991px 58.991px ">s </tspan>&lt;i&gt;go&lt;/i&gt;&lt;/b&gt;.</text></g><g transform="matrix(4.16667,0,0,4.16667,27.5775,107.086)"><text x="0px" y="15.759px" style="font-family:'ArialMT', 'Arial', sans-serif;font-size:22px;fill:url(#_Linear2);">00:00:10.000 --&gt; 00:00:30.000 region:fred</text><g transform="matrix(22,0,0,22,255.524,50.4785)"></g><text x="0px" y="50.479px" style="font-family:'ArialMT', 'Arial', sans-serif;font-size:22px;fill:url(#_Linear3);">&lt;v Fred&gt;This is my fourth!</text></g></g><g id="Section-2" serif:id="Section 2"><g transform="matrix(4.16667,0,0,4.16667,1943.06,408.816)"><text x="0px" y="31.491px" style="font-family:'ArialMT', 'Arial', sans-serif;font-size:22px;">00:00:12.500 --&gt; 00:00:32.500 region:fred</text><g transform="matrix(22,0,0,22,356.727,66.2105)"></g><text x="0px" y="66.21px" style="font-family:'ArialMT', 'Arial', sans-serif;font-size:22px;">&lt;v Fred&gt;OK, &lt;b&gt;let’<tspan x="197.71px 208.71px " y="66.21px 66.21px ">s </tspan>&lt;i&gt;go&lt;/i&gt;&lt;/b&gt;.</text></g><rect x="2487.7" y="595.392" width="166.411" height="108.043" style="fill:#001bff;fill-opacity:0.3;"/><rect x="2837.79" y="594.472" width="129.434" height="109.661" style="fill:#eb00ff;fill-opacity:0.3;"/><rect x="3069.16" y="594.461" width="151.864" height="109.875" style="fill:#eb00ff;fill-opacity:0.3;"/><rect x="1940.99" y="594.05" width="369.811" height="110.262" style="fill:#ff0036;fill-opacity:0.3;"/><rect x="1940.99" y="704.314" width="1466.3" height="14.559" style="fill:#ff0036;fill-opacity:0.3;"/><rect x="2486.55" y="722.157" width="920.671" height="14.583" style="fill:#001bff;fill-opacity:0.3;"/><rect x="2837.8" y="740.244" width="384.216" height="14.583" style="fill:#eb00ff;fill-opacity:0.3;"/><rect x="3222.96" y="594.758" width="184.131" height="109.454" style="fill:#001bff;fill-opacity:0.3;"/><g transform="matrix(4.16667,0,0,4.16667,1940.5,107.086)"><text x="0px" y="15.759px" style="font-family:'ArialMT', 'Arial', sans-serif;font-size:22px;fill:url(#_Linear4);">00:00:10.000 --&gt; 00:00:30.000 region:fred</text><g transform="matrix(22,0,0,22,255.524,50.4785)"></g><text x="0px" y="50.479px" style="font-family:'ArialMT', 'Arial', sans-serif;font-size:22px;fill:url(#_Linear5);">&lt;v Fred&gt;This is my fourth!</text></g></g><g id="Section-3" serif:id="Section 3"><rect x="4148.92" y="467.187" width="785.282" height="220.047" style="fill:#cacaca;"/><rect id="Second-line" serif:id="Second line" x="4147.95" y="577.115" width="570.881" height="110"/><rect id="First-line" serif:id="First line" x="4148.04" y="467.103" width="741.664" height="110"/><g transform="matrix(4.16667,0,0,4.16667,4170.15,466.95)"><text x="0px" y="21.419px" style="font-family:'ArialMT', 'Arial', sans-serif;font-size:22px;fill:#fff;">This is my fourth!</text><text x="0px" y="47.139px" style="font-family:'ArialMT', 'Arial', sans-serif;font-size:22px;fill:#fff;">OK,</text><text x="44.011px" y="47.139px" style="font-family:'Arial-BoldMT', 'Arial', sans-serif;font-weight:700;font-size:22px;fill:#fff;">let’<tspan x="74.98px " y="47.139px ">s</tspan></text><text x="93.328px" y="47.139px" style="font-family:'Arial-BoldItalicMT', 'Arial', sans-serif;font-weight:700;font-style:italic;font-size:22px;fill:#fff;">go</text><g transform="matrix(22,0,0,22,126.317,47.1388)"></g><text x="120.205px" y="47.139px" style="font-family:'ArialMT', 'Arial', sans-serif;font-size:22px;fill:#fff;">.</text></g></g><g id="Separator"><path d="M1860.65,416.586l-69.084,64.983l-0.027,-129.937l69.111,64.954Z" style="fill:#404040;"/><path d="M1795.61,-2.106l-4.07,0l-0,353.771l4.07,3.832l-0,1.093l-0,-358.696Z" style="fill:#404040;"/><path d="M1795.62,477.751l-4.07,3.773l-0,351.81l4.075,-0c-0.397,-132.835 -0.023,-239.002 -0.005,-355.583Z" style="fill:#404040;"/></g><g id="Separator1" serif:id="Separator"><path d="M3907.63,416.586l-69.084,64.983l-0.027,-129.937l69.111,64.954Z" style="fill:#404040;"/><path d="M3842.58,-2.106l-4.07,0l-0,353.771l4.07,3.832l-0,1.093l-0,-358.696Z" style="fill:#404040;"/><path d="M3842.59,477.751l-4.07,3.773l-0,351.81l4.075,-0c-0.397,-132.835 -0.023,-239.002 -0.005,-355.583Z" style="fill:#404040;"/></g></g><defs><linearGradient id="_Linear2" x1="0" y1="0" x2="1" y2="0" gradientUnits="userSpaceOnUse" gradientTransform="matrix(1.01185,-85.3417,85.3417,1.01185,208.482,64.0793)"><stop offset="0" style="stop-color:#000;stop-opacity:1"/><stop offset="0.01" style="stop-color:#474747;stop-opacity:1"/><stop offset="0.02" style="stop-color:#808080;stop-opacity:1"/><stop offset="0.05" style="stop-color:#949494;stop-opacity:1"/><stop offset="0.49" style="stop-color:#e8e8e8;stop-opacity:1"/><stop offset="1" style="stop-color:#fff;stop-opacity:1"/></linearGradient><linearGradient id="_Linear3" x1="0" y1="0" x2="1" y2="0" gradientUnits="userSpaceOnUse" gradientTransform="matrix(1.01185,-85.3417,85.3417,1.01185,208.482,64.0793)"><stop offset="0" style="stop-color:#000;stop-opacity:1"/><stop offset="0.01" style="stop-color:#474747;stop-opacity:1"/><stop offset="0.02" style="stop-color:#808080;stop-opacity:1"/><stop offset="0.05" style="stop-color:#949494;stop-opacity:1"/><stop offset="0.49" style="stop-color:#e8e8e8;stop-opacity:1"/><stop offset="1" style="stop-color:#fff;stop-opacity:1"/></linearGradient><linearGradient id="_Linear4" x1="0" y1="0" x2="1" y2="0" gradientUnits="userSpaceOnUse" gradientTransform="matrix(1.01185,-85.3417,85.3417,1.01185,208.482,64.0793)"><stop offset="0" style="stop-color:#000;stop-opacity:1"/><stop offset="0.01" style="stop-color:#474747;stop-opacity:1"/><stop offset="0.02" style="stop-color:#808080;stop-opacity:1"/><stop offset="0.05" style="stop-color:#949494;stop-opacity:1"/><stop offset="0.49" style="stop-color:#e8e8e8;stop-opacity:1"/><stop offset="1" style="stop-color:#fff;stop-opacity:1"/></linearGradient><linearGradient id="_Linear5" x1="0" y1="0" x2="1" y2="0" gradientUnits="userSpaceOnUse" gradientTransform="matrix(1.01185,-85.3417,85.3417,1.01185,208.482,64.0793)"><stop offset="0" style="stop-color:#000;stop-opacity:1"/><stop offset="0.01" style="stop-color:#474747;stop-opacity:1"/><stop offset="0.02" style="stop-color:#808080;stop-opacity:1"/><stop offset="0.05" style="stop-color:#949494;stop-opacity:1"/><stop offset="0.49" style="stop-color:#e8e8e8;stop-opacity:1"/><stop offset="1" style="stop-color:#fff;stop-opacity:1"/></linearGradient></defs></svg>