<?xml version="1.0" encoding="UTF-8" standalone="no"?><!DOCTYPE svg PUBLIC "-//W3C//DTD SVG 1.1//EN" "http://www.w3.org/Graphics/SVG/1.1/DTD/svg11.dtd"><svg width="100%" height="100%" viewBox="0 0 5437 3917" version="1.1" xmlns="http://www.w3.org/2000/svg" xmlns:xlink="http://www.w3.org/1999/xlink" xml:space="preserve" xmlns:serif="http://www.serif.com/" style="fill-rule:evenodd;clip-rule:evenodd;stroke-linecap:round;stroke-linejoin:round;stroke-miterlimit:1.5;"><rect id="Artboard-with-tree" serif:id="Artboard with tree" x="0" y="0" width="5436.41" height="3916.67" style="fill:none;"/><clipPath id="_clip1"><rect id="Artboard-with-tree1" serif:id="Artboard with tree" x="0" y="0" width="5436.41" height="3916.67"/></clipPath><g clip-path="url(#_clip1)"><g id="Horizontal-Lines" serif:id="Horizontal Lines"><g><rect x="-796.117" y="3603.97" width="6232.86" height="2.753"/><path d="M5335.08,3557.43l101.661,46.53l-98.22,53.411c24.125,-25.845 22.404,-75.816 -3.441,-99.941Z" style="fill:#9a9a9a;"/><path d="M5436.74,3603.97l-6232.86,-0l0,2.753l6152.91,-0" style="fill:none;stroke:#9a9a9a;stroke-width:8.33px;"/></g><rect x="-69.925" y="3029.16" width="5540.42" height="0.037" style="fill:#ebebeb;stroke:#9a9a9a;stroke-width:8.33px;stroke-dasharray:8.33,50,8.33,8.33;stroke-dashoffset:16.67;"/><rect x="-146.501" y="2454.1" width="5626.44" height="0.037" style="fill:#ebebeb;stroke:#9a9a9a;stroke-width:8.33px;stroke-dasharray:8.33,50,8.33,8.33;stroke-dashoffset:16.67;"/></g><g transform="matrix(7.98249,0,0,7.98249,-2292.28,-833.065)"><text x="608.983px" y="589.804px" style="font-family:'ArialMT', 'Arial', sans-serif;font-size:12px;fill:#9a9a9a;">T<tspan x="615.868px 618.534px " y="589.804px 589.804px ">im</tspan>e</text><g transform="matrix(7.82964,0,0,7.82964,646.509,589.804)"></g><text x="637.379px" y="589.804px" style="font-family:'ArialMT', 'Arial', sans-serif;font-size:7.83px;fill:#9a9a9a;">(s)</text></g><g id="Vertical-lines" serif:id="Vertical lines"><path d="M1666.81,3600.15l-0,-2945.34" style="fill:none;stroke:#9a9a9a;stroke-width:6.25px;stroke-dasharray:12.5,6.25,6.25,18.75;stroke-dashoffset:37.5;"/><path d="M1583.23,3600.15l-0,-2058.46" style="fill:none;stroke:#9a9a9a;stroke-width:6.25px;stroke-dasharray:12.5,6.25,6.25,18.75;stroke-dashoffset:37.5;"/><path d="M3799.98,3600.18l-0,-2958.45" style="fill:none;stroke:#9a9a9a;stroke-width:6.25px;stroke-dasharray:12.5,6.25,6.25,18.75;stroke-dashoffset:37.5;"/><path d="M4175.39,3599.99l0,-2472.68" style="fill:none;stroke:#9a9a9a;stroke-width:6.25px;stroke-dasharray:12.5,6.25,6.25,18.75;stroke-dashoffset:37.5;"/><path d="M5183.11,3599.98l0,-2077.99" style="fill:none;stroke:#9a9a9a;stroke-width:6.25px;stroke-dasharray:12.5,6.25,6.25,18.75;stroke-dashoffset:37.5;"/><path d="M932.488,3599.4l0,-2502.65" style="fill:none;stroke:#9a9a9a;stroke-width:6.25px;stroke-dasharray:12.5,6.25,6.25,18.75;stroke-dashoffset:37.5;"/><path d="M42.029,3599.88l0,-2106.36" style="fill:none;stroke:#9a9a9a;stroke-width:6.25px;stroke-dasharray:12.5,6.25,6.25,18.75;stroke-dashoffset:37.5;"/><path d="M4475.15,3600.06l-0,-1589.24" style="fill:none;stroke:#9a9a9a;stroke-width:6.25px;"/><path d="M2475.28,3596.11l-0,-2480.54" style="fill:none;stroke:#9a9a9a;stroke-width:6.25px;stroke-dasharray:12.5,6.25,6.25,18.75;stroke-dashoffset:37.5;"/><path d="M2633.67,3599.88l0,-2477.32" style="fill:none;stroke:#9a9a9a;stroke-width:6.25px;stroke-dasharray:12.5,6.25,6.25,18.75;stroke-dashoffset:37.5;"/></g><g id="Cues"><path d="M3800.1,3108.33c-0,-18.397 -14.936,-33.333 -33.333,-33.333l-2066.72,-0c-18.398,-0 -33.334,14.936 -33.334,33.333l0,416.667c0,18.397 14.936,33.333 33.334,33.333l2066.72,0c18.397,0 33.333,-14.936 33.333,-33.333l-0,-416.667Z" style="fill:#ffd300;"/><path d="M1583.38,3108.33c0,-18.397 -14.936,-33.333 -33.333,-33.333l-1475.04,-0c-18.397,-0 -33.333,14.936 -33.333,33.333l-0,416.667c-0,18.397 14.936,33.333 33.333,33.333l1475.04,0c18.397,0 33.333,-14.936 33.333,-33.333l0,-416.667Z" style="fill:#ff9200;"/><path d="M2474.63,2533.33c0,-18.397 -14.936,-33.333 -33.333,-33.333l-1475.04,-0c-18.398,-0 -33.334,14.936 -33.334,33.333l0,416.667c0,18.397 14.936,33.333 33.334,33.333l1475.04,0c18.397,0 33.333,-14.936 33.333,-33.333l0,-416.667Z" style="fill:#d300ff;"/><path d="M4181.11,2533.33c0,-18.397 -14.936,-33.333 -33.333,-33.333l-1480.92,-0c-18.397,-0 -33.333,14.936 -33.333,33.333l-0,416.667c-0,18.397 14.936,33.333 33.333,33.333l1480.92,0c18.397,0 33.333,-14.936 33.333,-33.333l0,-416.667Z" style="fill:#d300ff;"/><path d="M5183.38,3108.33c-0,-18.397 -14.936,-33.333 -33.334,-33.333l-941.617,-0c-18.398,-0 -33.334,14.936 -33.334,33.333l0,416.667c0,18.397 14.936,33.333 33.334,33.333l941.617,0c18.398,0 33.334,-14.936 33.334,-33.333l-0,-416.667Z" style="fill:#ff9200;"/><path d="M5183.24,2533.33c0,-18.397 -14.936,-33.333 -33.333,-33.333l-644.193,-0c-18.398,-0 -33.334,14.936 -33.334,33.333l0,416.667c0,18.397 14.936,33.333 33.334,33.333l644.193,0c18.397,0 33.333,-14.936 33.333,-33.333l0,-416.667Z" style="fill:#d300ff;"/></g><g id="Root-Leaf" serif:id="Root Leaf"><rect x="1663.68" y="371.147" width="2139.39" height="328.36" style="fill:#cecece;"/><g transform="matrix(141.05,0,0,141.05,2323.6,586.706)"></g><text x="1739.5px" y="586.706px" style="font-family:'ArialMT', 'Arial', sans-serif;font-size:141.05px;fill:#767676;">Max = 30</text><g transform="matrix(141.05,0,0,141.05,3695.61,575.886)"></g><text x="3235.55px" y="575.886px" style="font-family:'ArialMT', 'Arial', sans-serif;font-size:141.05px;fill:#767676;">[1<tspan x="3342.71px 3421.16px " y="575.886px 575.886px ">1,</tspan> 22]</text></g><g id="Root-Left-leaf" serif:id="Root Left leaf"><rect x="928.91" y="831.268" width="1550.22" height="328.36" style="fill:#cecece;"/><g transform="matrix(141.05,0,0,141.05,2378.91,1035.27)"></g><text x="1986.82px" y="1035.27px" style="font-family:'ArialMT', 'Arial', sans-serif;font-size:141.05px;fill:#767676;">[7, 15]</text><g transform="matrix(141.05,0,0,141.05,1534.31,1049.42)"></g><text x="950.205px" y="1049.42px" style="font-family:'ArialMT', 'Arial', sans-serif;font-size:141.05px;fill:#767676;">Max = 15</text></g><g id="Bottom-left-leaf" serif:id="Bottom left leaf"><rect x="38.46" y="1255.39" width="1550.22" height="328.36" style="fill:#cecece;"/><g transform="matrix(141.05,0,0,141.05,665.432,1478.42)"></g><text x="81.328px" y="1478.42px" style="font-family:'ArialMT', 'Arial', sans-serif;font-size:141.05px;fill:#767676;">Max = 10</text><g transform="matrix(141.05,0,0,141.05,1487.74,1462.64)"></g><text x="1095.65px" y="1462.64px" style="font-family:'ArialMT', 'Arial', sans-serif;font-size:141.05px;fill:#767676;">[0, 10]</text></g><g id="Root-right-leaf" serif:id="Root right leaf"><rect x="2629.5" y="831.268" width="1550.22" height="328.36" style="fill:#cecece;"/><g transform="matrix(141.05,0,0,141.05,3309.72,1043.91)"></g><text x="2725.61px" y="1043.91px" style="font-family:'ArialMT', 'Arial', sans-serif;font-size:141.05px;fill:#767676;">Max = 30</text><g transform="matrix(141.05,0,0,141.05,4098.89,1029.87)"></g><text x="3628.35px" y="1029.87px" style="font-family:'ArialMT', 'Arial', sans-serif;font-size:141.05px;fill:#767676;">[16, 25]</text></g><g id="Bottom-right-leaf-1" serif:id="Bottom right leaf 1"><rect x="4169.49" y="1254.42" width="1017.86" height="328.36" style="fill:#cecece;"/><g transform="matrix(112.5,0,0,112.5,4654.26,1464.21)"></g><text x="4188.38px" y="1464.21px" style="font-family:'ArialMT', 'Arial', sans-serif;font-size:112.5px;fill:#767676;">Max = 30</text><g transform="matrix(112.5,0,0,112.5,5153.72,1453.12)"></g><text x="4778.43px" y="1453.12px" style="font-family:'ArialMT', 'Arial', sans-serif;font-size:112.5px;fill:#767676;">[25, 30]</text></g><g id="Bottom-right-leaf-2" serif:id="Bottom right leaf 2"><rect x="4471.36" y="1697.98" width="715.99" height="328.36" style="fill:#cecece;"/><g transform="matrix(112.5,0,0,112.5,5018.29,1988.65)"></g><text x="4643px" y="1988.65px" style="font-family:'ArialMT', 'Arial', sans-serif;font-size:112.5px;fill:#767676;">[27, 30]</text><g transform="matrix(112.5,0,0,112.5,5063.52,1832.54)"></g><text x="4597.65px" y="1832.54px" style="font-family:'ArialMT', 'Arial', sans-serif;font-size:112.5px;fill:#767676;">Max = 30</text></g><g id="Timebar"><path id="Line" d="M1015.35,733.333c-0,-2.299 -1.867,-4.166 -4.167,-4.166c-2.3,-0 -4.167,1.867 -4.167,4.166l0,2870.83l8.334,-0l-0,-2870.83Z" style="fill:#ffca00;"/><circle cx="1011.18" cy="740.465" r="11.298" style="fill:#ffca00;"/><g id="Times"><g transform="matrix(108.333,0,0,108.333,97.5503,3750.29)"></g><text x="37.301px" y="3750.29px" style="font-family:'ArialMT', 'Arial', sans-serif;font-size:108.333px;fill:#9a9a9a;">0</text><g transform="matrix(108.333,0,0,108.333,962.355,3747)"></g><text x="902.105px" y="3747px" style="font-family:'ArialMT', 'Arial', sans-serif;font-size:108.333px;fill:#9a9a9a;">7</text><g transform="matrix(108.333,0,0,108.333,1588.62,3747)"></g><text x="1468.12px" y="3747px" style="font-family:'ArialMT', 'Arial', sans-serif;font-size:108.333px;fill:#9a9a9a;">10</text><g transform="matrix(108.333,0,0,108.333,1767.17,3747)"></g><text x="1654.71px" y="3747px" style="font-family:'ArialMT', 'Arial', sans-serif;font-size:108.333px;fill:#9a9a9a;">1<tspan x="1706.92px " y="3747px ">1</tspan></text><g transform="matrix(108.333,0,0,108.333,2478.93,3747)"></g><text x="2358.43px" y="3747px" style="font-family:'ArialMT', 'Arial', sans-serif;font-size:108.333px;fill:#9a9a9a;">15</text><g transform="matrix(108.333,0,0,108.333,2690.38,3747)"></g><text x="2569.88px" y="3747px" style="font-family:'ArialMT', 'Arial', sans-serif;font-size:108.333px;fill:#9a9a9a;">16</text><g transform="matrix(108.333,0,0,108.333,3804.52,3747)"></g><text x="3684.02px" y="3747px" style="font-family:'ArialMT', 'Arial', sans-serif;font-size:108.333px;fill:#9a9a9a;">22</text><g transform="matrix(108.333,0,0,108.333,4292.22,3747)"></g><text x="4171.72px" y="3747px" style="font-family:'ArialMT', 'Arial', sans-serif;font-size:108.333px;fill:#9a9a9a;">25</text><text x="4415.41px" y="3746.41px" style="font-family:'ArialMT', 'Arial', sans-serif;font-size:108.333px;fill:#9a9a9a;">27</text><text x="5068.14px" y="3746.41px" style="font-family:'ArialMT', 'Arial', sans-serif;font-size:108.333px;fill:#9a9a9a;">30</text></g></g><path d="M1705.27,831.268l928.324,-134.02" style="fill:none;stroke:#8e8e8e;stroke-width:10.42px;"/><path d="M4680.38,1582.78l150.434,114.417" style="fill:none;stroke:#8e8e8e;stroke-width:10.42px;"/><path d="M3406.23,829.253l-770.039,-131.507" style="fill:none;stroke:#8e8e8e;stroke-width:10.42px;"/><path d="M1705.97,1158.17l-891.61,97.166" style="fill:none;stroke:#8e8e8e;stroke-width:10.42px;"/><path d="M3405.88,1158l1275.97,94.178" style="fill:none;stroke:#8e8e8e;stroke-width:10.42px;"/></g></svg>