<?xml version="1.0" encoding="UTF-8" standalone="no"?><!DOCTYPE svg PUBLIC "-//W3C//DTD SVG 1.1//EN" "http://www.w3.org/Graphics/SVG/1.1/DTD/svg11.dtd"><svg width="100%" height="100%" viewBox="0 0 5334 2084" version="1.1" xmlns="http://www.w3.org/2000/svg" xmlns:xlink="http://www.w3.org/1999/xlink" xml:space="preserve" xmlns:serif="http://www.serif.com/" style="fill-rule:evenodd;clip-rule:evenodd;stroke-linecap:round;stroke-linejoin:round;stroke-miterlimit:1.5;"><rect id="Original-artboard" serif:id="Original artboard" x="0" y="0" width="5333.33" height="2083.33" style="fill:none;"/><clipPath id="_clip1"><rect id="Original-artboard1" serif:id="Original artboard" x="0" y="0" width="5333.33" height="2083.33"/></clipPath><g clip-path="url(#_clip1)"><g><rect x="-0.158" y="1770.98" width="5333.33" height="2.356"/><path d="M5231.75,1723.95l101.429,47.034l-98.485,52.923c24.254,-25.726 22.781,-75.704 -2.944,-99.957Z" style="fill:#9a9a9a;"/><path d="M5333.18,1770.98l-5333.33,0l-0,2.356l5253.37,-0" style="fill:none;stroke:#9a9a9a;stroke-width:8.33px;"/></g><rect x="0" y="1195.83" width="5333.33" height="0.035" style="fill:#ebebeb;stroke:#9a9a9a;stroke-width:8.33px;stroke-dasharray:8.33,50,8.33,8.33;stroke-dashoffset:16.67;"/><rect x="0.053" y="620.767" width="5333.33" height="0.035" style="fill:#ebebeb;stroke:#9a9a9a;stroke-width:8.33px;stroke-dasharray:8.33,50,8.33,8.33;stroke-dashoffset:16.67;"/><rect x="0.027" y="50" width="5333.33" height="0.035" style="fill:#ebebeb;stroke:#9a9a9a;stroke-width:8.33px;stroke-dasharray:8.33,50,8.33,8.33;stroke-dashoffset:16.67;"/><path d="M1583.38,1275c0,-18.397 -14.936,-33.333 -33.333,-33.333l-1475.04,-0c-18.397,-0 -33.333,14.936 -33.333,33.333l-0,416.667c-0,18.397 14.936,33.333 33.333,33.333l1475.04,-0c18.397,-0 33.333,-14.936 33.333,-33.333l0,-416.667Z" style="fill:#ff9200;"/><path d="M2474.63,700c0,-18.397 -14.936,-33.333 -33.333,-33.333l-1475.04,-0c-18.398,-0 -33.334,14.936 -33.334,33.333l0,416.667c0,18.397 14.936,33.333 33.334,33.333l1475.04,-0c18.397,-0 33.333,-14.936 33.333,-33.333l0,-416.667Z" style="fill:#d300ff;"/><path d="M4175.24,700c-0,-18.397 -14.936,-33.333 -33.334,-33.333l-1475.04,-0c-18.397,-0 -33.333,14.936 -33.333,33.333l-0,416.667c-0,18.397 14.936,33.333 33.333,33.333l1475.04,-0c18.398,-0 33.334,-14.936 33.334,-33.333l-0,-416.667Z" style="fill:#d300ff;"/><path d="M5183.24,700c0,-18.397 -14.936,-33.333 -33.333,-33.333l-755.593,-0c-18.397,-0 -33.333,14.936 -33.333,33.333l0,416.667c0,18.397 14.936,33.333 33.333,33.333l755.593,-0c18.397,-0 33.333,-14.936 33.333,-33.333l0,-416.667Z" style="fill:#d300ff;"/><path d="M2475,1275c0,-18.397 -14.936,-33.333 -33.333,-33.333l-741.667,-0c-18.397,-0 -33.333,14.936 -33.333,33.333l-0,416.667c-0,18.397 14.936,33.333 33.333,33.333l741.667,-0c18.397,-0 33.333,-14.936 33.333,-33.333l0,-416.667Z" style="fill:#ff9200;"/><path d="M5183.38,1275c-0,-18.397 -14.936,-33.333 -33.334,-33.333l-951.956,-0c-18.397,-0 -33.333,14.936 -33.333,33.333l-0,416.667c-0,18.397 14.936,33.333 33.333,33.333l951.956,-0c18.398,-0 33.334,-14.936 33.334,-33.333l-0,-416.667Z" style="fill:#ff9200;"/><path d="M3800.1,1275c-0,-18.397 -14.936,-33.333 -33.333,-33.333l-1100,-0c-18.398,-0 -33.334,14.936 -33.334,33.333l0,416.667c0,18.397 14.936,33.333 33.334,33.333l1100,-0c18.397,-0 33.333,-14.936 33.333,-33.333l-0,-416.667Z" style="fill:#ff9200;"/><g transform="matrix(95.7898,0,0,95.7898,2771.92,1882.21)"></g><text x="2562.62px" y="1882.21px" style="font-family:'ArialMT', 'Arial', sans-serif;font-size:95.79px;fill:#9a9a9a;">T<tspan x="2617.58px 2638.86px " y="1882.21px 1882.21px ">im</tspan>e</text><g id="Timebar"><g transform="matrix(1,0,0,0.993647,0,-1.82699)"><g transform="matrix(43.482,0,0,43.482,1138.52,1849.56)"></g><text x="884.639px" y="1849.56px" style="font-family:'ArialMT', 'Arial', sans-serif;font-size:43.482px;fill:#9a9a9a;">00:37:04.000</text></g><path id="Line" d="M1015.35,58.333c-0,-2.299 -1.867,-4.166 -4.167,-4.166c-2.3,-0 -4.167,1.867 -4.167,4.166l0,1708.33l8.334,-0l-0,-1708.33Z" style="fill:#ffca00;"/><circle cx="1011.3" cy="65.465" r="11.298" style="fill:#ffca00;"/></g></g></svg>